<?xml version="1.0" encoding="UTF-8" standalone="no"?>
<!-- Created with Inkscape (http://www.inkscape.org/) -->

<svg
   xmlns:dc="http://purl.org/dc/elements/1.1/"
   xmlns:cc="http://creativecommons.org/ns#"
   xmlns:rdf="http://www.w3.org/1999/02/22-rdf-syntax-ns#"
   xmlns:svg="http://www.w3.org/2000/svg"
   xmlns="http://www.w3.org/2000/svg"
   xmlns:xlink="http://www.w3.org/1999/xlink"
   xmlns:sodipodi="http://sodipodi.sourceforge.net/DTD/sodipodi-0.dtd"
   xmlns:inkscape="http://www.inkscape.org/namespaces/inkscape"
   id="svg4366"
   sodipodi:docname="ICN-FOSSIG-A-00000000-A-KHZAE-00001-A-001-01.SVG"
   viewBox="0 0 799.53944 714.04895"
   version="1.1"
   inkscape:version="0.92.1 unknown"
   width="799.53943"
   height="714.04895"
   inkscape:export-filename="/home/kibukj/documents/S1000D/projects/FOSSIG/ICN-FOSSIG-A-00000000-A-KHZAE-00001-A-001-01.PNG"
   inkscape:export-xdpi="70.01815"
   inkscape:export-ydpi="70.01815">
  <defs
     id="defs4543" />
  <sodipodi:namedview
     id="base"
     bordercolor="#666666"
     inkscape:pageshadow="2"
     inkscape:window-y="0"
     pagecolor="#ffffff"
     inkscape:window-height="877"
     inkscape:window-maximized="0"
     inkscape:zoom="0.98290606"
     inkscape:window-x="1920"
     showgrid="false"
     borderopacity="1.0"
     inkscape:current-layer="layer1"
     inkscape:cx="394.78294"
     inkscape:cy="377.70527"
     inkscape:window-width="796"
     inkscape:pageopacity="0.0"
     inkscape:document-units="px"
     fit-margin-top="0"
     fit-margin-left="0"
     fit-margin-right="0"
     fit-margin-bottom="0"
     showguides="true"
     inkscape:guide-bbox="true" />
  <g
     id="layer1"
     inkscape:label="Layer 1"
     inkscape:groupmode="layer"
     transform="translate(83.358311,-330.57522)">
    <g
       id="g4436"
       transform="matrix(9.9583,0,0,9.9583,-4025.8,-5301)"
       style="display:inline;fill:#008080">
      <circle
         id="path5935"
         style="display:none;fill:#008080;stroke-width:0"
         inkscape:export-ydpi="150"
         inkscape:export-filename="H:\ПРОФ-о\тест1.png"
         inkscape:export-xdpi="150"
         transform="matrix(1.0604,0,0,1.0604,16.85,121.47)"
         cx="397.85715"
         cy="454.50504"
         r="31.428572" />
      <circle
         id="path5937"
         style="display:none;fill:#008080;stroke:#ffffff;stroke-width:0.94300002"
         inkscape:export-ydpi="150"
         inkscape:export-filename="H:\ПРОФ-о\тест1.png"
         transform="matrix(1.0604,0,0,1.0604,16.85,121.12)"
         inkscape:export-xdpi="150"
         cx="397.85715"
         cy="454.50504"
         r="31.428572" />
      <path
         id="path5939"
         style="display:inline;fill:#008080"
         d="m 435.71,635.62 c -1.3417,-0.16133 -1.604,-0.2531 -0.76747,-0.26853 l 0.62938,-0.0116 -0.4825,-0.41917 c -0.39151,-0.34014 -0.67636,-0.43856 -1.5107,-0.52195 -0.56552,-0.0565 -1.3257,-0.13653 -1.6892,-0.17773 l -0.66099,-0.0749 0.95476,0.44221 c 0.52512,0.24323 1.2026,0.48458 1.5056,0.53636 0.30298,0.0518 0.55083,0.15442 0.55083,0.22814 0,0.16403 0.0714,0.17045 -0.80787,-0.0722 -0.83714,-0.23102 -2.0971,-0.77109 -2.4236,-1.0389 -0.21756,-0.1784 -2.2078,-0.56203 -2.3222,-0.44762 -0.0325,0.0325 0.42714,0.20465 1.0214,0.38257 1.1546,0.34573 1.2453,0.38642 1.1261,0.50562 -0.0824,0.0824 -2.5919,-0.76475 -2.8365,-0.95754 -0.0808,-0.0637 -0.70873,-0.29232 -1.3954,-0.50801 -2.1304,-0.66928 -4.8695,-2.2947 -6.7885,-4.0284 -0.50765,-0.45864 -1.1199,-0.9201 -1.3606,-1.0255 -0.56344,-0.2467 -1.8755,-1.2081 -1.7796,-1.304 0.0404,-0.0404 0.39939,0.16583 0.79774,0.45823 0.39838,0.29242 0.76564,0.5317 0.8162,0.5317 0.0505,0 -0.41192,-0.57837 -1.0277,-1.2853 -0.99919,-1.147 -2.8492,-3.7339 -2.8492,-3.9841 0,-0.0529 -0.24786,-0.20767 -0.55081,-0.34394 -0.30295,-0.13629 -0.83243,-0.42044 -1.1766,-0.63145 l -0.62582,-0.38367 0.68869,1.0008 c 0.87008,1.2643 1.7828,2.3833 2.8231,3.4611 0.44839,0.46451 0.74429,0.84458 0.65754,0.84458 -0.33699,0 -2.5908,-2.6072 -3.7684,-4.3593 -0.44405,-0.66065 -0.97961,-1.427 -1.1901,-1.703 -0.21051,-0.276 -0.38276,-0.56972 -0.38276,-0.65268 0,-0.083 -0.32605,-0.83689 -0.72456,-1.6753 -0.39851,-0.83847 -0.99608,-2.3162 -1.3279,-3.284 -0.33186,-0.96772 -0.72464,-1.8931 -0.87283,-2.0564 -0.33585,-0.37006 -0.60199,-0.87762 -0.59345,-1.1318 0.004,-0.1063 0.13514,0.0503 0.2924,0.34804 0.38363,0.72635 0.6018,0.84573 0.42522,0.23268 -0.28798,-0.99973 -0.5839,-3.0521 -0.73644,-5.1071 -0.12563,-1.6929 -0.21238,-2.1901 -0.4229,-2.4236 -0.79826,-0.88542 -0.95154,-2.5531 -0.51984,-5.6551 0.53209,-3.8238 1.4078,-6.6767 3.0903,-10.068 0.60289,-1.2152 1.0962,-2.3097 1.0962,-2.4323 0,-0.12255 0.10456,-0.35111 0.23231,-0.50792 0.2291,-0.28118 0.23104,-0.28106 0.13821,0.009 -0.12524,0.39084 -0.0334,0.2806 1.2855,-1.5423 0.61372,-0.84826 1.612,-2.0711 2.2185,-2.7174 0.65473,-0.69778 1.2303,-1.4734 1.4169,-1.9095 0.23101,-0.5398 0.6037,-0.98486 1.4064,-1.6795 1.2574,-1.0881 3.3756,-2.5777 4.7594,-3.3469 0.5251,-0.2919 1.1534,-0.68051 1.3962,-0.86356 0.74238,-0.55964 2.973,-1.5309 5.2136,-2.2701 3.2496,-1.0721 7.1879,-1.7563 10.093,-1.7535 1.7545,0.002 4.4643,0.24404 5.6242,0.50295 0.52514,0.11722 1.4003,0.29045 1.9448,0.38494 0.5445,0.0945 0.95838,0.22297 0.91969,0.28558 -0.0387,0.0626 0.30518,0.16073 0.76412,0.21807 2.7058,0.33807 8.3689,3.2167 11.721,5.9578 2.1173,1.7314 5.0688,4.8038 4.7858,4.9818 -0.12604,0.0793 1.0543,1.9332 1.7507,2.7498 0.20198,0.23684 0.31141,0.34654 0.24316,0.24378 -0.0682,-0.10275 -0.0987,-0.26294 -0.0677,-0.35596 0.12129,-0.36378 1.8959,2.8091 2.8823,5.1534 1.8964,4.5069 2.8402,9.711 2.5773,14.211 -0.10053,1.7209 -0.34329,2.2773 -0.35247,0.80788 l -0.005,-0.8446 -0.36121,0.44067 c -0.28671,0.34977 -0.36135,0.60818 -0.36191,1.2529 -9.1e-4,1.0148 -0.37238,4.0549 -0.66603,5.4508 -0.12164,0.57838 -0.19178,1.081 -0.15579,1.117 0.036,0.036 0.2055,-0.18868 0.37671,-0.49927 0.29287,-0.53112 0.30596,-0.53849 0.22048,-0.12401 -0.05,0.24236 -0.24747,0.6059 -0.43892,0.80785 -0.19143,0.20197 -0.52113,0.91584 -0.73267,1.5863 -0.43604,1.3824 -1.798,4.6116 -2.4708,5.8584 -0.29041,0.5382 -2.161,3.1549 -2.8684,4.0124 -0.914,1.108 -2.1146,2.3502 -2.2716,2.3502 -0.0713,0 0.34155,-0.50459 0.91751,-1.1213 0.89204,-0.95518 2.7728,-3.3346 3.1652,-4.0043 0.066,-0.11274 -0.17069,-0.0244 -0.52605,0.19627 -0.3554,0.22072 -0.879,0.50698 -1.1636,0.63616 -0.35596,0.16159 -0.66656,0.48995 -0.99533,1.0523 -0.44777,0.76589 -1.7963,2.5855 -2.9673,4.0038 l -0.51412,0.62268 0.66099,-0.44741 c 0.95283,-0.64496 1.1732,-0.72803 0.6145,-0.2316 -0.26793,0.23808 -0.72965,0.55659 -1.026,0.70778 -0.29638,0.15121 -1.2005,0.82336 -2.0092,1.4936 -1.9082,1.5817 -4.229,2.9574 -6.2071,3.6793 -0.86945,0.31736 -2.2341,0.818 -3.0326,1.1126 -0.79845,0.29456 -1.487,0.50033 -1.5301,0.45725 -0.1109,-0.11091 -0.0766,-0.12626 1.1212,-0.50074 0.59236,-0.1852 1.0497,-0.36405 1.0163,-0.39743 -0.16702,-0.16702 -1.9367,0.31266 -2.9747,0.80634 -0.64629,0.30738 -1.3734,0.60455 -1.6157,0.66039 -0.24236,0.0558 -0.55632,0.1359 -0.69771,0.17789 -0.14139,0.042 -0.25704,0.0116 -0.25704,-0.0675 0,-0.0791 0.27047,-0.18958 0.60105,-0.24543 0.33059,-0.0559 1.0081,-0.29603 1.5056,-0.53376 l 0.90454,-0.43219 -0.73442,0.0825 c -0.40394,0.0454 -1.1804,0.12399 -1.7254,0.17469 -0.54505,0.0507 -1.0611,0.17664 -1.1468,0.27988 -0.1209,0.14568 -0.083,0.16871 0.16932,0.10272 0.22395,-0.0586 0.29243,-0.0321 0.22006,0.085 -0.0578,0.0935 -0.21686,0.17267 -0.35347,0.17594 -0.1366,0.003 -0.59862,0.15709 -1.0267,0.34186 -0.69635,0.30058 -1.0212,0.33716 -3.0846,0.3472 -1.2685,0.006 -2.8014,-0.0483 -3.4065,-0.12107 z m 3.2301,-0.57391 v -0.44064 h -1.9095 c -1.0502,0 -1.9095,0.0315 -1.9095,0.0701 0,0.0385 0.17834,0.18724 0.39629,0.3305 0.25601,0.16823 0.81504,0.29063 1.579,0.34573 0.65052,0.0469 1.3314,0.0965 1.5132,0.11016 0.2748,0.0207 0.33049,-0.0494 0.33049,-0.41581 z m 2.5475,0.15753 c 1.8719,-0.44374 1.7527,-0.59817 -0.46175,-0.59817 h -1.9389 v 0.44064 c 0,0.4213 0.0274,0.44045 0.62428,0.43566 0.34332,-0.003 1.1427,-0.12791 1.7764,-0.27813 z m -2.5635,-2.2664 -0.0318,-1.5213 -2.8036,-0.0803 c -1.542,-0.0442 -2.815,-0.0699 -2.8287,-0.0572 -0.0819,0.0757 0.88782,2.0966 1.2065,2.5144 0.43911,0.57572 0.5844,0.60784 2.9025,0.64217 l 1.5869,0.0235 -0.0317,-1.5213 z m 4.5695,1.3624 c 0.42707,-0.0253 2.7242,-0.28488 3.2723,-0.36979 0.67694,-0.10491 1.8341,-1.0567 2.9074,-2.3914 l 0.75363,-0.93718 -0.4922,0.0841 c -0.48142,0.0822 -3.2244,0.36294 -4.2311,0.433 -0.48663,0.0338 -0.53569,0.0932 -1.2011,1.4522 -0.38157,0.77927 -0.76467,1.4607 -0.85131,1.5142 -0.24261,0.14993 -0.20059,0.0365 0.41506,-1.1205 0.31496,-0.59189 0.61686,-1.2249 0.6709,-1.4067 0.0931,-0.31322 0.0579,-0.33049 -0.67242,-0.33049 -0.76025,0 -1.7462,0.25657 -1.7462,0.45445 0,0.0559 0.11487,0.14574 0.25531,0.19962 0.20052,0.077 0.10025,0.18274 -0.46739,0.4931 -0.39747,0.21733 -0.7492,0.47773 -0.78163,0.57872 -0.0338,0.10514 0.24442,0.32379 0.65099,0.51166 l 0.70995,0.32807 -0.76677,0.0467 c -0.42168,0.0257 -0.89658,-0.0228 -1.0553,-0.10773 -0.15867,-0.0849 -0.45003,-0.15439 -0.64739,-0.15439 -0.32057,0 -0.90961,-0.43741 -0.59645,-0.44292 0.15185,-0.003 -0.26215,-0.286 -0.42268,-0.28928 -0.0606,-10e-4 -0.11017,0.36976 -0.11017,0.82444 v 0.8267 l 2.0931,-0.0918 c 1.1512,-0.0505 2.1923,-0.0976 2.3135,-0.10481 z m -9.165,-0.31841 c -0.27518,-0.37774 -1.2639,-2.4316 -1.2639,-2.6256 0,-0.0707 -0.0496,-0.13176 -0.11015,-0.13569 -0.0606,-0.004 -1.2338,-0.1287 -2.6072,-0.27728 -1.3734,-0.14859 -2.5201,-0.24905 -2.5482,-0.22325 -0.12141,0.11136 1.6354,2.0992 2.3044,2.6074 0.67129,0.50997 0.86294,0.57398 2.2514,0.75235 0.83472,0.1072 1.6745,0.2034 1.8661,0.21374 0.33523,0.0181 0.33928,0.006 0.10761,-0.31166 z m -5.0155,-1.1017 c -0.46522,-0.46454 -1.1028,-1.1843 -1.4168,-1.5995 -0.54117,-0.71553 -0.61467,-0.76018 -1.4102,-0.85614 -0.46158,-0.0557 -1.3994,-0.22435 -2.0841,-0.37489 -0.68469,-0.15049 -1.2659,-0.25261 -1.2916,-0.22691 -0.0257,0.0257 0.44828,0.50108 1.0533,1.0564 1.4559,1.3362 3.1342,2.3424 4.3502,2.6082 1.7193,0.37569 1.7556,0.34809 0.79906,-0.60708 z m 20.172,0.61114 c 0.62268,-0.12842 1.2163,-0.30299 1.319,-0.38795 0.10281,-0.085 0.43097,-0.17384 0.72926,-0.19751 0.57941,-0.046 2.7212,-1.0523 3.9311,-1.847 0.55555,-0.3649 2.2235,-1.6471 3.1318,-2.4075 0.0259,-0.0217 -0.6681,0.19533 -1.5423,0.48234 -1.4452,0.47444 -1.6695,0.59869 -2.4708,1.3689 -1.1501,1.1055 -2.0752,1.8644 -2.6088,2.1404 -0.72694,0.37591 -0.60684,0.11425 0.16574,-0.36112 0.64974,-0.39979 2.8788,-2.3674 2.777,-2.4512 -0.0221,-0.0182 -0.80029,0.12258 -1.7294,0.31278 -0.92905,0.19021 -1.8574,0.34671 -2.0629,0.34787 -0.27802,0.002 -0.52261,0.19957 -0.95477,0.77318 -0.31954,0.42412 -0.97659,1.1512 -1.4601,1.6158 -0.98576,0.94707 -0.95846,0.96859 0.77512,0.61114 z m -23.692,-1.0646 c -0.48472,-0.30845 -1.4101,-1.0579 -2.0564,-1.6654 -1.0608,-0.99707 -1.2965,-1.1445 -2.4236,-1.5157 -0.68669,-0.22614 -1.3477,-0.44512 -1.4688,-0.4866 -0.4147,-0.14195 0.44806,0.66416 1.5896,1.4853 1.3197,0.94926 2.9991,1.9218 4.139,2.3969 1.1625,0.48455 1.2243,0.42442 0.2203,-0.21451 z m 13.615,-1.0055 c -0.10605,-0.0425 -0.23273,-0.0372 -0.28155,0.0116 -0.0488,0.0488 0.038,0.0835 0.19279,0.0771 0.17111,-0.007 0.20593,-0.0419 0.0888,-0.0887 z m -0.46821,-2.6815 v -2.4881 l -0.62426,-0.0758 c -0.34334,-0.0417 -1.9297,-0.10804 -3.5253,-0.14739 -2.7712,-0.0684 -2.901,-0.0591 -2.901,0.20584 0,0.36567 0.99945,4.2246 1.183,4.5676 0.15479,0.28922 0.64987,0.3366 4.1417,0.3964 l 1.7259,0.0296 v -2.4881 z m 0.88977,2.1785 c 0.1198,-0.22384 0.12122,-0.35395 0.005,-0.47003 -0.11607,-0.11608 -0.16051,-0.071 -0.16051,0.16266 0,0.1823 -0.0915,0.32316 -0.21007,0.32316 -0.17171,0 -0.18102,-0.0871 -0.0509,-0.47738 0.0875,-0.26257 0.17545,-0.75697 0.19534,-1.0987 0.025,-0.42825 0.17143,-0.79333 0.47148,-1.1751 0.3184,-0.40517 0.45488,-0.76395 0.50839,-1.3368 0.0692,-0.74052 0.0563,-0.77844 -0.23696,-0.69974 -0.17053,0.0458 -0.52487,0.0841 -0.78743,0.0852 l -0.47739,0.002 v 2.497 c 0,2.3842 0.013,2.4971 0.28862,2.4971 0.15873,0 0.36315,-0.13931 0.45427,-0.30956 z m 4.9332,0.0742 c 0.19484,-0.0523 0.346,-0.24082 0.39682,-0.49495 0.0452,-0.22581 0.12551,-0.58347 0.17858,-0.79489 0.0848,-0.33776 0.052,-0.38434 -0.27076,-0.38434 -0.2692,0 -0.39181,0.098 -0.45936,0.36723 -0.0759,0.30219 -0.18116,0.3672 -0.59479,0.3672 -0.55881,0 -0.71167,0.13051 -0.51871,0.44276 0.0776,0.12554 0.0666,0.28335 -0.0276,0.39691 -0.12281,0.14799 -0.0341,0.1881 0.41233,0.18653 0.31282,-0.001 0.71043,-0.04 0.88354,-0.0865 z m -12.031,-0.3889 c -0.0403,-0.18179 -0.27937,-1.1116 -0.53122,-2.0664 -0.25188,-0.95471 -0.45795,-1.8982 -0.45795,-2.0968 0,-0.44169 -0.45952,-0.64742 -1.4461,-0.64742 -0.65805,0 -3.808,-0.34818 -4.8386,-0.5348 l -0.48262,-0.0874 0.37375,0.99296 c 0.46009,1.2224 1.8,3.8072 2.1269,4.103 0.22854,0.20682 3.0951,0.60372 4.6877,0.64901 0.59268,0.0168 0.63581,-0.007 0.56811,-0.31222 z m 15.411,0.10663 c 1.1186,-0.12314 2.134,-0.2549 2.2564,-0.29277 0.42124,-0.13038 2.8411,-4.9145 2.6051,-5.1505 -0.0264,-0.0264 -0.46296,0.0107 -0.97018,0.0824 -0.75503,0.10671 -1.0409,0.23194 -1.5772,0.69095 -1.9582,1.676 -1.9711,1.6833 -2.851,1.5915 -0.61161,-0.0638 -0.74542,-0.0458 -0.55082,0.074 0.63681,0.39198 -0.0716,1.4656 -0.96701,1.4656 -0.32231,0 -0.40101,0.10386 -0.6016,0.79375 -0.12692,0.43658 -0.23074,0.83315 -0.23074,0.88133 0,0.13768 0.69644,0.1048 2.887,-0.13629 z m -21.9,-2.1631 c -0.51109,-0.98964 -1.0479,-2.1298 -1.1929,-2.5338 -0.145,-0.40392 -0.27348,-0.75048 -0.28552,-0.77014 -0.012,-0.0196 -1.0744,-0.23398 -2.3608,-0.47635 -1.2864,-0.24236 -2.5528,-0.50232 -2.8142,-0.57768 l -0.4752,-0.13705 0.61166,1.1275 c 1.0307,1.9 2.7297,4.2153 3.191,4.3486 0.49488,0.14299 3.5144,0.73381 4.0799,0.79829 0.0965,0.011 -0.24279,-0.78969 -0.75393,-1.7793 z m 27.455,1.2806 c 1.5571,-0.32782 1.6315,-0.36131 2.1671,-0.97532 0.72156,-0.82707 1.7678,-2.3964 2.4887,-3.7329 l 0.57416,-1.0645 -0.77723,0.19895 c -0.42751,0.10941 -1.7192,0.37556 -2.8704,0.59143 -1.4282,0.26781 -2.0931,0.45361 -2.0931,0.58493 0,0.33082 -0.94117,2.4422 -1.6523,3.7068 l -0.68045,1.21 0.61555,-0.09 c 0.33855,-0.0495 1.3411,-0.24272 2.228,-0.4294 z m -31.983,-1.2806 c -0.84712,-1.0071 -1.3795,-1.8138 -2.2141,-3.3548 l -0.68328,-1.2617 -0.84554,-0.18796 c -0.46507,-0.10339 -1.3333,-0.38108 -1.9293,-0.6171 -0.59605,-0.23602 -1.1418,-0.40978 -1.2127,-0.38616 -0.17517,0.0584 1.0356,1.8523 2.1601,3.2004 1.6574,1.9871 2.0981,2.3377 3.6136,2.8752 0.75344,0.26722 1.4576,0.48974 1.5649,0.4945 0.10722,0.005 -0.0969,-0.33838 -0.45372,-0.76251 z m 35.453,0.35027 c 0.68482,-0.23149 1.4431,-0.52326 1.6851,-0.64839 0.38278,-0.19794 1.6498,-1.5119 2.4094,-2.4987 0.63483,-0.82472 2.0482,-2.9557 1.9953,-3.0085 -0.0325,-0.0325 -0.60962,0.14261 -1.2825,0.38907 -0.67294,0.24648 -1.5886,0.54716 -2.0348,0.6682 -0.77713,0.21083 -0.82868,0.25586 -1.2249,1.0703 -0.50046,1.0285 -2.1448,3.5327 -2.5746,3.9208 -0.26666,0.2408 -0.41024,0.52804 -0.26397,0.52804 0.0253,0 0.60622,-0.18939 1.291,-0.42088 z m -18.263,-6.2257 -0.0395,-3.2682 -3.2315,-0.0996 c -1.7773,-0.0548 -3.5455,-0.12774 -3.9292,-0.16205 -0.65561,-0.0586 -0.69771,-0.0412 -0.69771,0.2896 0,0.64454 0.45289,4.4689 0.63773,5.3851 l 0.18218,0.90309 1.1691,0.0832 c 0.64299,0.0458 2.2444,0.0953 3.5588,0.11016 l 2.3897,0.0269 -0.0395,-3.2682 z m 1.9814,2.639 c 0.35018,-0.85181 0.6646,-2.8156 0.58578,-3.6589 -0.0636,-0.68036 -0.0781,-0.69742 -1.1152,-1.3065 -0.57793,-0.33946 -1.1004,-0.64455 -1.161,-0.67801 -0.0606,-0.0335 -0.11017,1.3642 -0.11017,3.1059 v 3.1667 l 0.77117,-5.6e-4 c 0.76964,-5.3e-4 0.77165,-0.002 1.0294,-0.62865 z m -9.3395,0.005 c -0.18958,-0.78767 -0.38958,-2.2163 -0.53976,-3.8558 -0.24157,-2.637 -0.0581,-2.3722 -1.7244,-2.489 -0.78854,-0.0553 -2.4164,-0.22843 -3.6174,-0.38479 -1.201,-0.15636 -2.2175,-0.28428 -2.2589,-0.28428 -0.22184,0 0.67345,4.1963 1.2535,5.8754 0.2768,0.80124 0.285,0.80881 0.99964,0.92085 1.5482,0.24276 4.1439,0.51726 5.0329,0.53226 0.89745,0.0152 0.93086,0.003 0.8544,-0.31474 z m 21.29,-0.25543 c 0.2556,-10e-4 0.35678,-0.16419 0.56657,-0.91192 0.14048,-0.50066 0.28724,-0.99322 0.32613,-1.0946 0.0389,-0.10133 -0.29869,0.0158 -0.75013,0.26033 -0.59406,0.32176 -0.84647,0.55315 -0.91359,0.83753 -0.051,0.21609 -0.2328,0.55101 -0.40398,0.74426 l -0.31121,0.35133 0.58754,-0.0927 c 0.32316,-0.051 0.72756,-0.0934 0.89867,-0.0943 z m -28.62,-1.66 c -0.50924,-1.794 -0.99377,-3.9983 -0.99697,-4.5355 -10e-4,-0.21227 -0.0849,-0.4503 -0.18591,-0.52896 -0.101,-0.0787 -0.87766,-0.25462 -1.7259,-0.391 -0.84827,-0.13639 -2.2198,-0.4009 -3.0479,-0.58783 -0.82807,-0.18693 -1.5056,-0.30952 -1.5056,-0.27245 0,0.47194 0.88844,3.3307 1.6399,5.2766 l 0.57718,1.4947 1.0581,0.24153 c 1.5539,0.35472 3.7922,0.77382 4.2317,0.79232 l 0.38281,0.0162 -0.42733,-1.5056 z m 31.536,1.1471 c 3.2613,-0.60746 3.2311,-0.59463 3.6651,-1.5616 0.20607,-0.45919 0.47838,-1.1239 0.60516,-1.4771 0.24361,-0.67879 1.238,-4.2137 1.238,-4.401 0,-0.0605 -0.21481,-0.0552 -0.47738,0.0118 -0.26256,0.067 -0.97834,0.22891 -1.5907,0.35979 -1.0568,0.2259 -1.1261,0.26572 -1.3657,0.78438 -0.13886,0.3005 -0.72851,1.253 -1.3103,2.1168 -0.81383,1.2081 -1.184,1.6279 -1.6044,1.8197 -0.7441,0.33945 -0.90787,0.56362 -1.2523,1.7142 -0.35384,1.1821 -0.54484,1.1243 2.0925,0.63303 z m -37.089,-0.89448 c 0,-0.0428 -0.15662,-0.45595 -0.34807,-0.91806 -0.48432,-1.1691 -1.3706,-3.8986 -1.605,-4.9433 l -0.19562,-0.87166 -1.6063,-0.46692 c -0.8835,-0.25679 -1.9502,-0.60062 -2.3705,-0.76403 l -0.76412,-0.2971 0.0876,0.46058 c 0.14347,0.75445 1.342,3.8952 1.9863,5.2048 0.67418,1.3706 0.59206,1.3137 3.1265,2.1655 1.5442,0.51899 1.6892,0.5559 1.6892,0.43021 z m 42.23,-0.36708 c 0.48473,-0.15253 1.2779,-0.42879 1.7626,-0.6139 l 0.88131,-0.33658 0.73938,-1.4947 c 0.62594,-1.2654 1.978,-4.9043 1.978,-5.3235 0,-0.0719 -0.34701,0.005 -0.77115,0.17057 -0.42414,0.16568 -1.489,0.51084 -2.3665,0.76703 l -1.5953,0.46577 -0.40997,1.6058 c -0.4159,1.6289 -1.1846,3.9235 -1.5566,4.6463 -0.34418,0.66886 -0.40993,0.66329 1.3382,0.11319 z m -46.814,-1.281 c -0.91415,-1.8217 -1.9084,-4.3078 -2.3056,-5.7653 -0.24022,-0.88132 -0.31007,-0.98157 -0.90813,-1.3034 -0.35636,-0.19176 -0.99664,-0.57364 -1.4229,-0.84864 l -0.77497,-0.50002 0.0957,0.40796 c 0.42488,1.8104 2.4443,6.1218 3.1754,6.7793 0.44845,0.40333 1.8624,1.3096 2.0734,1.329 0.0674,0.006 0.0975,-0.0383 0.0671,-0.0989 z m 50.847,-0.40003 c 0.46194,-0.28061 1.0235,-0.69372 1.248,-0.91803 0.70259,-0.7021 2.6554,-4.9273 3.1019,-6.7115 l 0.10714,-0.4282 -0.49939,0.36855 c -0.27464,0.2027 -0.94556,0.61344 -1.4909,0.91278 -0.68104,0.3738 -0.99148,0.6309 -0.99148,0.82114 0,0.43215 -1.1452,3.6016 -1.8451,5.1068 -0.34753,0.74727 -0.59545,1.3587 -0.55094,1.3587 0.0445,0 0.45884,-0.22959 0.92079,-0.5102 z m -26.691,-2.758 c -0.0462,-0.18176 -0.23254,-0.5288 -0.41416,-0.77115 -0.18164,-0.24237 -0.49547,-0.81598 -0.69744,-1.2747 -0.20197,-0.45873 -0.62922,-1.1197 -0.94944,-1.4689 -0.32024,-0.34915 -0.62933,-0.85273 -0.6869,-1.119 -0.0879,-0.4063 -0.0419,-0.54705 0.28551,-0.87445 l 0.39021,-0.39021 -0.32008,-0.11839 c -0.32572,-0.12051 -0.35057,-0.52886 -0.0718,-1.1806 0.0997,-0.23322 -0.0106,-0.25824 -1.191,-0.26985 -0.71554,-0.007 -1.8896,-0.0576 -2.609,-0.11249 l -1.308,-0.0997 0.0952,3.8082 c 0.0524,2.0945 0.12831,3.8413 0.16875,3.8817 0.0713,0.0713 3.7611,0.24769 6.194,0.29615 1.1743,0.0234 1.1964,0.0173 1.1141,-0.30662 z m -7.5747,-1.4689 c -0.0502,-0.82806 -0.1358,-2.5797 -0.19019,-3.8925 -0.0697,-1.6823 -0.15013,-2.3869 -0.27247,-2.3869 -0.0955,0 -0.16835,0.11566 -0.16193,0.25705 0.0173,0.38205 -0.27472,0.45589 -0.3278,0.0829 -0.0386,-0.27093 -0.16476,-0.33304 -0.80789,-0.39786 -3.252,-0.3276 -5.3578,-0.56012 -5.709,-0.63036 -0.47127,-0.0942 -0.46423,-0.12512 -0.42322,1.8634 0.0198,0.96314 0.43296,5.782 0.4984,5.8139 0.0134,0.007 1.2142,0.156 2.6684,0.33216 2.4037,0.29119 3.0906,0.35971 4.3915,0.43817 l 0.42558,0.0257 -0.0913,-1.5056 z m -7.6408,0.18674 c -0.086,-0.42987 -0.304,-2.9199 -0.5072,-5.7932 l -0.10302,-1.4569 -1.8361,-0.33416 c -1.0099,-0.18378 -2.4526,-0.47602 -3.2061,-0.6494 -0.75349,-0.17343 -1.3952,-0.29003 -1.4261,-0.25922 -0.11575,0.11574 0.25577,4.7246 0.4976,6.1736 l 0.25168,1.508 0.94994,0.25229 c 1.1032,0.29301 4.6064,0.9669 5.1179,0.98448 0.31032,0.0107 0.33918,-0.0363 0.26135,-0.42554 z m 36.941,-0.46393 1.4174,-0.3156 0.16925,-1.1174 c 0.21979,-1.4511 0.58777,-5.1952 0.59164,-6.0197 0.003,-0.62526 -0.008,-0.64024 -0.40094,-0.55349 -0.22215,0.0491 -1.6827,0.35012 -3.2457,0.66909 -1.563,0.31896 -2.8764,0.61451 -2.9186,0.6568 -0.0423,0.0423 -0.0357,0.29602 0.0145,0.56389 l 0.0914,0.48709 1.085,-0.0548 c 0.9774,-0.0494 1.1872,-0.007 2.1165,0.42314 l 1.0316,0.47798 0.0587,0.67564 c 0.0508,0.58487 -0.056,0.91531 -0.79484,2.4595 -0.46946,0.98114 -0.85354,1.8239 -0.85354,1.8728 0,0.13171 0.093,0.11894 1.6377,-0.22501 z m -43.507,-0.60411 c -0.004,-0.101 -0.0685,-0.48105 -0.1445,-0.8446 -0.18847,-0.90236 -0.58259,-4.8796 -0.58311,-5.8848 l -4.4e-4,-0.81728 -1.9462,-0.5948 c -1.0704,-0.32715 -2.1941,-0.70387 -2.4971,-0.83715 l -0.55082,-0.2424 10e-4,0.99346 c 0.002,1.2173 0.34197,4.1409 0.65122,5.5932 0.12583,0.59099 0.22882,1.1066 0.22882,1.1459 0,0.12582 1.0546,0.53165 2.8643,1.1021 2.021,0.63715 1.9851,0.63014 1.9766,0.38635 z m 47.913,-0.65295 2.0047,-0.65116 0.31857,-1.7094 c 0.40243,-2.1594 0.59017,-3.7852 0.5916,-5.123 l 0.001,-1.0492 -1.0649,0.40958 c -0.58573,0.22525 -1.7094,0.59408 -2.4971,0.81955 l -1.4322,0.40995 -0.003,0.96411 c -0.004,1.4201 -0.44931,5.6671 -0.68263,6.5148 -0.0901,0.32745 0.0363,0.30069 2.7637,-0.58524 z m -53.191,-1.9909 c -0.26976,-1.2394 -0.58831,-4.1979 -0.58968,-5.4768 l -0.001,-1.1803 -0.99146,-0.48891 c -0.5453,-0.26891 -1.2503,-0.6939 -1.5666,-0.94441 l -0.5751,-0.4555 0.0954,1.8309 c 0.0989,1.8986 0.36388,3.6918 0.76964,5.2093 0.19766,0.73918 0.33158,0.95022 0.83044,1.3086 0.91817,0.6596 2.0932,1.2668 2.1476,1.1097 0.0269,-0.0777 -0.0266,-0.48841 -0.11895,-0.91261 z m 57.422,-0.0202 c 0.35967,-0.2515 0.71088,-0.49682 0.78045,-0.54513 0.51108,-0.35491 1.5976,-8.1178 1.0953,-7.8251 -0.0987,0.0575 -0.44386,0.28255 -0.76703,0.50012 -0.32316,0.21756 -0.85192,0.53424 -1.1751,0.70376 -0.32315,0.16949 -0.66852,0.36318 -0.76749,0.43043 -0.11411,0.0775 -0.23772,0.89005 -0.33785,2.2206 -0.0868,1.1541 -0.28677,2.7999 -0.44429,3.6574 -0.15755,0.85743 -0.28645,1.6467 -0.28645,1.7539 0,0.23235 0.88479,-0.18437 1.9025,-0.89601 z m -16.004,-2.4489 c 0,-0.16636 -0.0661,-0.26161 -0.14689,-0.21168 -0.0808,0.0499 -0.14689,0.18604 -0.14689,0.30245 0,0.11641 0.0661,0.21165 0.14689,0.21165 0.0808,0 0.14689,-0.13609 0.14689,-0.30242 z m 2.0564,-0.57258 c 0.60848,0.18441 0.73444,0.15498 0.73444,-0.17156 0,-0.27124 -0.0601,-0.30011 -0.45901,-0.22035 -0.25247,0.0505 -0.65296,0.0918 -0.88999,0.0918 -0.25352,0 -0.3931,0.0612 -0.33904,0.14876 0.0506,0.0818 -0.0106,0.36272 -0.13598,0.62427 l -0.22792,0.4755 0.47515,-0.52989 c 0.39644,-0.4421 0.53596,-0.51143 0.84235,-0.41856 z m -18.655,0.31914 c 0,-0.0634 0.19827,-0.23235 0.44065,-0.37552 0.24236,-0.14318 0.44065,-0.33438 0.44065,-0.42492 0,-0.0905 0.21481,-0.34851 0.47738,-0.57326 0.26257,-0.22477 0.40448,-0.41137 0.31533,-0.41464 -0.10518,-0.004 -0.13765,-0.25982 -0.0925,-0.72965 0.0559,-0.58149 0.007,-0.81218 -0.25117,-1.1741 -0.17639,-0.24771 -0.28241,-0.51238 -0.23558,-0.58814 0.13063,-0.21139 -0.18886,-0.34294 -0.58901,-0.24253 -0.22485,0.0565 -0.35888,0.19552 -0.35888,0.3724 0,0.42412 -0.21672,0.47596 -0.63016,0.15075 -0.204,-0.16047 -0.47386,-0.29176 -0.59967,-0.29176 -0.12584,0 -0.47228,-0.21379 -0.76988,-0.47511 -0.29762,-0.2613 -0.63951,-0.47613 -0.75977,-0.47737 -0.2433,-0.003 -0.41323,-0.259 -0.53688,-0.81016 -0.13759,-0.61331 -0.83065,-1.2803 -1.4196,-1.3663 l -0.52972,-0.0773 -0.0946,1.3319 c -0.12998,1.8313 -0.11917,5.9832 0.0156,6.0044 0.10266,0.0162 3.3922,0.1948 4.6269,0.25125 0.30296,0.0138 0.55085,-0.0267 0.55085,-0.09 z m -5.5256,-1.2435 c 0.0447,-0.58572 0.11009,-2.267 0.14533,-3.7362 l 0.0641,-2.6712 -0.3898,-0.14039 c -0.21441,-0.0772 -0.54727,-0.29045 -0.73966,-0.47383 -0.29508,-0.28126 -0.59389,-0.35384 -1.9095,-0.46375 -0.85785,-0.0717 -2.1877,-0.21777 -2.9551,-0.32469 -0.76749,-0.1069 -1.408,-0.18479 -1.4233,-0.17309 -0.10163,0.0776 -0.48627,5.3441 -0.48627,6.6578 v 1.6113 l 1.2118,0.16213 c 0.6665,0.0892 1.9719,0.23159 2.901,0.31646 0.92905,0.0849 1.9205,0.17659 2.2033,0.20382 1.4057,0.13536 1.2876,0.21834 1.3781,-0.96839 z m 22.445,0.81769 c -0.10606,-0.0424 -0.23273,-0.0372 -0.28154,0.0116 -0.0488,0.0488 0.0379,0.0835 0.19278,0.0771 0.17113,-0.007 0.20594,-0.0419 0.0888,-0.0887 z m 1.4727,-0.41078 0.98615,-0.0987 -0.0796,-1.9351 c -0.0438,-1.0643 -0.1736,-2.8856 -0.28847,-4.0472 -0.11484,-1.1617 -0.20879,-2.1564 -0.20879,-2.2105 0,-0.0541 -0.9419,0.0164 -2.0932,0.15668 -1.1512,0.14033 -2.8458,0.30184 -3.7657,0.35897 l -1.6726,0.10383 0.0927,1.1906 c 0.051,0.65484 0.0969,1.488 0.10192,1.8516 0.009,0.62451 0.0566,0.69947 0.86811,1.3587 0.83378,0.67727 0.88771,0.69771 1.8418,0.69771 1.2117,0 1.6632,0.24158 2.3704,1.2685 0.50144,0.72806 0.51211,0.7704 0.28256,1.1208 -0.23523,0.35897 -0.23284,0.36354 0.16996,0.3235 0.2247,-0.0223 0.8523,-0.085 1.3947,-0.13927 z m -31.853,-1.1262 c 0.0519,-0.49658 0.0958,-1.4055 0.0974,-2.0197 0.002,-0.61422 0.0968,-2.0408 0.21128,-3.17 0.11452,-1.1293 0.18855,-2.0729 0.16452,-2.0969 -0.024,-0.024 -0.66442,-0.14401 -1.423,-0.26666 -0.75869,-0.12264 -2.0989,-0.38533 -2.9782,-0.58375 -0.87933,-0.19845 -1.6786,-0.36079 -1.7761,-0.36079 -0.11411,0 -0.2678,0.61568 -0.43089,1.7259 -0.27668,1.8834 -0.54912,6.2234 -0.40001,6.372 0.15128,0.15077 5.416,1.2578 6.1311,1.2892 0.27311,0.012 0.32067,-0.0926 0.40392,-0.88925 z m 34.255,0.74806 c 1.773,-0.31491 5.135,-1.0608 5.2498,-1.1647 0.15882,-0.14379 -0.13001,-4.3572 -0.44148,-6.4411 l -0.24952,-1.6691 -0.44818,0.081 c -0.2465,0.0446 -1.2083,0.24319 -2.1374,0.44142 -0.92904,0.1982 -2.1702,0.43893 -2.7582,0.53495 l -1.069,0.17457 0.0764,0.46341 c 0.15296,0.92808 0.35822,3.4515 0.45286,5.5677 0.0692,1.5462 0.14791,2.1666 0.27499,2.1666 0.0979,0 0.5703,-0.0697 1.0496,-0.1548 z m -41.062,-1.6445 c 0.006,-1.2176 0.31299,-4.8366 0.52319,-6.1588 0.1283,-0.80705 0.20895,-1.4917 0.17922,-1.5214 -0.0298,-0.0298 -0.77882,-0.27828 -1.6646,-0.55231 -0.88578,-0.27402 -1.9575,-0.63975 -2.3817,-0.81271 -0.42412,-0.173 -0.77117,-0.29894 -0.77117,-0.27993 -1e-5,0.019 -0.10269,0.56339 -0.2282,1.2097 -0.31261,1.61 -0.64675,4.6307 -0.65023,5.878 l -0.003,1.0308 0.8446,0.33315 c 0.78218,0.30853 3.789,1.3033 4.0394,1.3364 0.0606,0.008 0.11116,-0.20026 0.11235,-0.46279 z m 48.25,-0.0214 c 0.72707,-0.21489 1.7681,-0.56463 2.3134,-0.77721 l 0.99147,-0.38653 -0.003,-1.115 c -0.002,-0.61327 -0.0934,-1.9228 -0.2037,-2.9102 -0.17424,-1.5593 -0.25103,-1.855 -0.58442,-2.2513 -0.21111,-0.25088 -0.38383,-0.56856 -0.38383,-0.70597 0,-0.13739 -0.0991,-0.39129 -0.2202,-0.56418 l -0.2202,-0.3144 -1.2119,0.42495 c -0.66658,0.23371 -1.5994,0.53256 -2.0729,0.66409 l -0.86095,0.23915 0.0996,0.60909 c 0.27849,1.7026 0.51391,3.8948 0.60654,5.6475 0.0703,1.3302 0.15509,1.9342 0.26571,1.8922 0.0894,-0.0339 0.75737,-0.23745 1.4845,-0.4523 z m -53.236,-4.8626 c 0.0919,-0.96943 0.29302,-2.3844 0.44695,-3.1444 0.15397,-0.75995 0.26274,-1.3963 0.24176,-1.4141 -0.021,-0.0178 -0.33558,-0.18195 -0.69913,-0.36482 -0.36355,-0.1829 -1.0325,-0.58425 -1.4866,-0.89194 l -0.82559,-0.55945 -0.32675,1.7529 c -0.45677,2.4505 -0.58223,3.5355 -0.58778,5.082 l -0.005,1.3414 0.91802,0.59115 c 0.50493,0.32511 1.1824,0.7303 1.5056,0.90042 l 0.58757,0.30931 0.0318,-0.9199 c 0.0175,-0.50596 0.10701,-1.7131 0.19894,-2.6826 z m 59.08,2.2398 0.84992,-0.5688 -0.0985,-1.1293 c -0.0542,-0.6211 -0.1214,-1.1556 -0.14935,-1.1877 -0.028,-0.0321 -0.29999,0.2118 -0.60448,0.54202 -0.48923,0.53055 -0.58906,0.58005 -0.85803,0.42559 -0.3843,-0.22071 -1.2552,-1.223 -1.5237,-1.7536 -0.11237,-0.22203 -0.22997,-0.37801 -0.26138,-0.34663 -0.0314,0.0314 0.0117,0.74187 0.0958,1.5788 0.0841,0.83695 0.19258,2.0335 0.24111,2.659 l 0.0883,1.1373 0.68527,-0.39394 c 0.37689,-0.21665 1.0677,-0.64989 1.5352,-0.96275 z m -31.183,0.005 c 0.21287,-0.44061 0.29502,-0.90973 0.29502,-1.6847 v -1.074 h -2.2033 c -1.2118,0 -2.2046,0.0496 -2.2062,0.11017 -0.002,0.0606 -0.0645,0.53613 -0.13976,1.0568 -0.1292,0.89379 -0.11468,0.98161 0.25999,1.5737 0.42636,0.6737 0.62235,0.73602 1.4938,0.47492 0.4627,-0.13863 0.62913,-0.11896 1.1187,0.13229 0.70887,0.36377 0.9765,0.24967 1.3818,-0.58907 z m 8.6168,-0.4453 c -0.0519,-0.6665 -0.0947,-1.4927 -0.0952,-1.8361 -6e-4,-0.42831 -0.0637,-0.62427 -0.20083,-0.62427 -0.13324,0 -0.18204,0.13475 -0.14621,0.40393 l 0.0538,0.40393 -0.15282,-0.38295 -0.15277,-0.38293 -2.8224,0.0567 c -1.5522,0.0312 -3.2354,0.0931 -3.7403,0.13757 l -0.91804,0.0808 v 1.09 c 0,0.99403 0.12974,1.3273 0.36723,0.94308 0.0499,-0.0808 0.19234,-0.14688 0.31648,-0.14688 0.12413,0 0.42003,-0.13837 0.65752,-0.3075 0.52611,-0.37461 0.8731,-0.28809 0.75547,0.18833 l -0.0838,0.33949 0.40911,-0.36722 c 0.26991,-0.24226 0.43079,-0.30661 0.47281,-0.18916 0.22174,0.6199 2.2517,1.1192 2.8791,0.70815 0.2198,-0.14403 0.64781,-0.218 1.1892,-0.20553 0.74856,0.0173 0.83758,0.051 0.77415,0.29359 -0.0804,0.30745 0.19679,1.0058 0.39991,1.0076 0.075,6.6e-4 0.0912,-0.52201 0.0376,-1.2107 z m -6.1919,0.62428 c -0.0551,-0.17377 -0.1333,-0.28289 -0.1737,-0.24248 -0.0404,0.0404 -0.0283,0.21561 0.0268,0.38936 0.0552,0.17374 0.13333,0.28285 0.17372,0.24246 0.0404,-0.0404 0.0283,-0.2156 -0.0268,-0.38934 z m 30.187,-1.5056 c 0.2147,-0.35216 0.29119,-0.73973 0.2916,-1.4775 2.7e-4,-0.55011 -0.0585,-0.96368 -0.13067,-0.91907 -0.0722,0.0446 -0.17971,-0.10022 -0.239,-0.32182 l -0.10776,-0.40293 -0.18616,0.44065 c -0.12722,0.30122 -0.16136,0.87065 -0.10786,1.7994 0.0431,0.74729 0.10316,1.3587 0.13355,1.3587 0.0304,0 0.18619,-0.21483 0.3463,-0.47738 z m -63.887,-1.6731 c 0.0774,-1.0389 0.31141,-2.7499 0.52007,-3.8023 l 0.3794,-1.9134 -0.48571,-0.78136 -0.48573,-0.78135 -0.18826,0.78524 c -0.33682,1.4047 -0.77386,4.7235 -0.7762,5.8943 -10e-4,0.69592 0.0851,1.3523 0.22116,1.6779 0.2417,0.57848 0.51635,0.96817 0.61372,0.87079 0.0335,-0.0335 0.12418,-0.91088 0.20155,-1.9498 z m 31.57,-1.2251 v -1.3192 l -0.68566,0.094 c -0.59955,0.0822 -0.67392,0.0634 -0.59216,-0.14969 0.0603,-0.15713 0.0187,-0.24369 -0.11705,-0.24369 -0.1158,0 -0.2752,-0.12083 -0.35424,-0.26853 -0.0901,-0.16841 -0.46175,-0.3393 -0.99666,-0.45834 -0.46912,-0.10441 -0.89732,-0.25998 -0.95155,-0.34573 -0.0687,-0.10857 -0.28484,-0.1001 -0.71201,0.0279 -0.33737,0.10107 -0.64572,0.15143 -0.68529,0.11188 -0.17284,-0.17281 0.78129,-0.59302 1.4776,-0.65077 0.69233,-0.0574 0.89445,0.006 2.1948,0.68825 l 1.4322,0.75148 -0.0265,-0.963 c -0.0216,-0.78502 -0.082,-1.0018 -0.32663,-1.1732 -0.16508,-0.11562 -0.26241,-0.24797 -0.21632,-0.29406 0.0461,-0.0461 0.19082,0.0232 0.32163,0.154 0.21916,0.21915 0.23781,0.1174 0.23781,-1.2975 v -1.5353 l -1.4321,-0.068 c -0.78769,-0.0374 -1.4484,-0.0565 -1.4684,-0.0425 -0.0199,0.014 0.0665,0.37125 0.19195,0.79382 0.3078,1.0365 0.23791,1.8379 -0.16534,1.8955 -0.23867,0.0342 -0.38755,-0.12845 -0.69771,-0.7619 -0.21687,-0.44291 -0.39642,-0.95816 -0.399,-1.145 -0.007,-0.49279 -0.29969,-0.77956 -0.80319,-0.78631 -0.24236,-0.003 -0.87629,-0.0536 -1.4087,-0.11188 l -0.96809,-0.10593 -0.24446,2.0948 c -0.32577,2.7913 -0.34733,2.6085 0.30782,2.6112 0.30296,10e-4 0.64982,0.0648 0.77084,0.14135 0.19403,0.12265 0.19115,0.19608 -0.0245,0.622 -0.13445,0.26561 -0.28497,0.66741 -0.33447,0.89289 -0.0495,0.22547 -0.15417,0.37029 -0.23258,0.32183 -0.0814,-0.0503 -0.1426,0.12368 -0.1426,0.40526 0,0.27136 -0.0793,0.57272 -0.17626,0.66968 -0.1371,0.13708 0.0417,0.17625 0.80432,0.17625 0.72144,0 1.1077,0.0775 1.4615,0.29322 0.42502,0.25913 0.74147,0.29328 2.721,0.29376 l 2.24,5.7e-4 v -1.3192 z m -1.5087,-0.16319 c -0.32708,-0.19041 -0.19436,-0.42715 0.23941,-0.42715 0.32681,0 0.68173,0.2447 0.68173,0.47002 0,0.16619 -0.61087,0.13776 -0.92114,-0.0429 z m -0.15204,-3.7526 c -0.0517,-0.0516 -0.0581,-0.15188 -0.0143,-0.22271 0.0939,-0.1519 0.35308,-0.0209 0.35308,0.17844 0,0.15789 -0.19908,0.18394 -0.33874,0.0443 z m 0.48563,-0.77003 c 0,-0.0808 0.0661,-0.18775 0.14687,-0.23767 0.0808,-0.0499 0.14689,-0.0247 0.14689,0.0561 0,0.0808 -0.0661,0.18773 -0.14689,0.23767 -0.0808,0.0499 -0.14687,0.0247 -0.14687,-0.0561 z m -0.73445,-0.45801 c 0,-0.0808 0.14874,-0.14585 0.3305,-0.14463 0.26728,0.002 0.28834,0.0295 0.11017,0.14463 -0.28477,0.18405 -0.44067,0.18405 -0.44067,0 z m 9.3676,6.1952 c 0.026,-0.0779 0.18694,-0.10516 0.35771,-0.0605 0.3057,0.08 0.30901,0.0577 0.21489,-1.4477 -0.0907,-1.4516 -0.65342,-6.6254 -0.72571,-6.6734 -0.0188,-0.0124 -1.2239,0.028 -2.678,0.0899 -1.4542,0.0618 -3.0578,0.11724 -3.5637,0.12314 l -0.91976,0.0107 0.011,2.5978 c 0.01,2.2565 0.0435,2.6225 0.25876,2.7862 0.23136,0.17589 0.23074,0.18869 -0.009,0.19303 -0.22576,0.004 -0.25706,0.16842 -0.25706,1.3494 v 1.3447 l 3.632,-0.0858 c 2.1213,-0.0501 3.6516,-0.14469 3.6792,-0.22745 z m -0.26063,-0.38455 c 0,-0.0356 0.0661,-0.10562 0.14688,-0.15555 0.0808,-0.0499 0.14688,-0.0208 0.14688,0.0648 0,0.0856 -0.0661,0.15556 -0.14688,0.15556 -0.0808,0 -0.14688,-0.0292 -0.14688,-0.0648 z m -5.9375,-0.8029 c -0.81633,-0.0983 -1.1226,-0.45428 -0.39086,-0.45428 0.51553,0 0.55403,-0.0855 0.20981,-0.46583 -0.23309,-0.25754 -0.20471,-0.26861 0.68859,-0.26861 0.72447,0 1.0397,0.0735 1.4172,0.33049 0.267,0.18177 0.48591,0.37707 0.48647,0.43401 8e-4,0.084 -0.79359,0.30311 -1.1986,0.33052 -0.0539,0.004 -0.14751,0.0562 -0.20809,0.11678 -0.0606,0.0606 -0.14873,0.0998 -0.19586,0.0871 -0.0471,-0.0127 -0.41104,-0.0623 -0.8087,-0.11018 z m 3.255,-0.12402 c -0.14238,-0.0323 -0.22109,-0.11982 -0.17494,-0.19448 0.11003,-0.17806 0.65412,-0.17602 0.65412,0.002 0,0.19175 -0.17368,0.26135 -0.47918,0.19206 z m -3.6307,-1.7292 c 0.10217,-0.12314 0.21605,-0.19363 0.25303,-0.15665 0.10183,0.10186 -0.1051,0.38054 -0.28265,0.38054 -0.0974,0 -0.0863,-0.0843 0.0296,-0.22389 z m 0.73148,-0.36367 c -0.18988,-0.12271 -0.18601,-0.14269 0.0281,-0.14464 0.13661,-10e-4 0.28924,0.0639 0.33915,0.14464 0.1149,0.1859 -0.0795,0.1859 -0.3672,0 z m -1.2285,-0.36807 c -0.0512,-0.13331 4.6e-4,-0.21947 0.1315,-0.21947 0.23756,0 0.29161,0.22953 0.0842,0.35771 -0.0723,0.0447 -0.16938,-0.0175 -0.21572,-0.13824 z m 0.71444,0.0743 c -0.0499,-0.0808 -0.0208,-0.14688 0.0648,-0.14688 0.0856,0 0.15557,0.0661 0.15557,0.14688 0,0.0808 -0.0292,0.14688 -0.0648,0.14688 -0.0356,0 -0.10562,-0.0661 -0.15553,-0.14688 z m 11.898,3.294 c 1.0502,-0.11674 2.1143,-0.25013 2.3646,-0.29642 l 0.4551,-0.0841 -0.19988,-1.2731 c -0.29152,-1.8565 -0.59715,-3.4059 -1.0427,-5.2859 l -0.39408,-1.6627 -0.44462,0.0829 c -0.82374,0.1536 -3.6662,0.49951 -4.9544,0.6029 l -1.2782,0.10261 0.0659,0.38715 c 0.15612,0.9177 0.6547,5.8154 0.65653,6.4491 0.004,1.4028 -0.002,1.3973 1.5244,1.2868 0.73584,-0.0533 2.1972,-0.19243 3.2474,-0.3092 z m -23.25,-0.003 c -0.35457,-0.15494 -0.55892,-0.16988 -0.77115,-0.0563 -0.44561,0.23847 -0.35295,0.29208 0.48241,0.2791 l 0.77114,-0.012 z m -1.6108,-0.13115 c -0.65188,-0.28331 -2.5198,-1.4921 -2.9949,-1.9381 -0.21331,-0.2002 -0.42062,-0.30902 -0.46067,-0.24181 -0.0401,0.0672 -0.11941,0.53121 -0.17635,1.0311 l -0.10352,0.90888 0.49074,0.0812 c 1.4358,0.2377 2.3279,0.34347 2.9878,0.35425 l 0.73442,0.012 -0.47748,-0.20755 z m -3.7773,-1.3967 c 0.13372,-0.97207 0.2249,-1.9868 0.22698,-2.5258 0.002,-0.40856 -0.61263,-1.7646 -0.99742,-2.202 -0.11988,-0.13629 -0.17608,-0.31559 -0.12488,-0.39845 0.0512,-0.0828 -0.0664,-0.46707 -0.26127,-0.85383 -0.19491,-0.38677 -0.40085,-0.91805 -0.45761,-1.1806 -0.0575,-0.26609 -0.19556,-0.47737 -0.31186,-0.47737 -0.27126,0 -0.2647,0.0849 0.0851,1.1016 0.1616,0.46963 0.29377,1.1433 0.29377,1.497 0,0.35373 0.10316,0.80056 0.2292,0.99295 0.21067,0.32151 0.2081,0.36157 -0.0316,0.49573 -0.37716,0.2111 -0.8373,-0.5759 -0.86337,-1.4766 -0.0163,-0.56375 -0.0937,-0.75207 -0.41156,-1.0021 -0.43565,-0.34267 -0.50575,-0.5804 -0.17115,-0.5804 0.27758,0 0.28155,-0.33683 0.0102,-0.8615 -0.15491,-0.29957 -0.38028,-0.44523 -0.85796,-0.55454 l -0.64782,-0.14825 -0.40897,1.1861 c -1.0754,3.1189 -1.9461,6.6855 -1.6733,6.8542 0.22186,0.13712 2.8678,0.72186 4.5825,1.0127 1.0664,0.18086 1.519,0.20688 1.5861,0.0911 0.0516,-0.0891 0.14378,-0.52553 0.20489,-0.96985 z m 34.734,0.57123 c 1.2522,-0.24983 2.4638,-0.48884 2.6924,-0.53113 0.22857,-0.0423 0.44617,-0.15657 0.48355,-0.25393 0.13085,-0.34103 -0.91091,-4.3942 -1.7224,-6.7016 l -0.44329,-1.2603 -0.76214,0.19205 c -0.41918,0.10561 -1.6738,0.35057 -2.788,0.54432 -1.1142,0.19376 -2.0509,0.37732 -2.0815,0.40793 -0.0306,0.0306 0.0721,0.58415 0.22813,1.2301 0.24103,0.99762 0.99654,4.939 1.2448,6.4943 0.0671,0.42046 0.11932,0.46482 0.47364,0.40256 0.21897,-0.0385 1.4227,-0.27438 2.6749,-0.52422 z m -27.758,-0.79361 c 0.40749,-0.25183 0.77821,-1.5503 1.0181,-3.5659 0.19428,-1.6326 0.20889,-2.0834 0.0656,-2.0284 -0.10133,0.0389 -0.25589,-0.0156 -0.34345,-0.12116 -0.0876,-0.10551 -0.4652,-0.23378 -0.83914,-0.28503 -0.53699,-0.0736 -0.71718,-0.0423 -0.85714,0.14915 -0.0975,0.13325 -0.40218,0.31505 -0.67717,0.40392 -0.45334,0.14654 -0.50721,0.22443 -0.5775,0.8353 -0.0427,0.37052 -0.19137,0.8474 -0.33051,1.0597 -0.5113,0.78034 -0.15166,2.9156 0.58096,3.4492 0.38858,0.28304 1.5687,0.34519 1.9602,0.10321 z m -13.057,-2.8246 c 0.23789,-0.98916 0.68967,-2.5425 1.004,-3.4518 0.31427,-0.90934 0.52671,-1.6719 0.47209,-1.6945 -0.0546,-0.0227 -1.0398,-0.35739 -2.1892,-0.74381 l -2.0899,-0.70264 -0.53145,1.2579 c -0.77208,1.8276 -1.9716,5.4696 -2.0114,6.1071 -0.0341,0.54723 -0.0323,0.54904 0.92057,0.91519 0.52512,0.20176 1.5827,0.55033 2.3502,0.77456 l 1.3954,0.40768 0.12358,-0.53557 c 0.068,-0.29458 0.31824,-1.3449 0.55613,-2.3341 z m 46.709,2.1532 c 2.0271,-0.67719 1.9403,-0.60193 1.8184,-1.5773 -0.0569,-0.45577 -0.25852,-1.1345 -0.44791,-1.5083 -0.22381,-0.44164 -0.38115,-1.0854 -0.44937,-1.8386 -0.0967,-1.0675 -0.49804,-2.3297 -1.101,-3.4627 l -0.2054,-0.3859 -0.88131,0.3455 c -0.48473,0.19002 -1.4497,0.51519 -2.1444,0.72262 l -1.2631,0.37714 0.55967,1.6503 c 0.60407,1.7813 1.5993,5.5629 1.5993,6.077 0,0.29092 0.045,0.3058 0.56888,0.18809 0.31286,-0.0703 1.1887,-0.33488 1.9462,-0.58794 z m -52.31,-1.403 c 0,-0.3849 1.4818,-4.7656 2.0759,-6.1371 0.31212,-0.7205 0.55108,-1.3235 0.53104,-1.34 -0.0201,-0.0165 -0.26784,-0.14574 -0.5506,-0.28717 -0.28275,-0.14144 -0.83105,-0.48238 -1.2185,-0.75766 -0.3874,-0.27526 -0.77653,-0.45592 -0.86472,-0.40141 -0.51799,0.32016 -3.219,7.1684 -2.9799,7.5553 0.2092,0.33843 2.7071,1.7763 2.8898,1.6634 0.0643,-0.0398 0.11696,-0.17273 0.11696,-0.29544 z m -2.643,-3.5786 c 0.33803,-1.0098 1.0333,-2.6953 1.5451,-3.7454 0.78456,-1.6098 0.90032,-1.9439 0.73794,-2.1299 -0.10588,-0.12128 -0.32486,-0.48262 -0.48653,-0.80301 l -0.29395,-0.58249 -0.89448,1.831 c -1.0212,2.0904 -2.0778,4.9446 -2.0778,5.6126 0,0.39553 0.68115,1.8302 0.8078,1.7014 0.0261,-0.0265 0.32402,-0.87451 0.66198,-1.8844 z m 29.964,-2.3012 c 0,-1.1041 -0.0464,-1.961 -0.10311,-1.9044 -0.0567,0.0567 -0.0913,0.31562 -0.0768,0.57532 0.0351,0.63149 -0.14619,0.83392 -1.4631,1.6334 -0.80802,0.49056 -1.163,0.80096 -1.2713,1.1116 l -0.15025,0.43101 0.90807,0.0519 c 0.49939,0.0285 1.189,0.0646 1.5323,0.0802 l 0.62426,0.0283 v -2.0074 z m 6.132,1.7708 c 1.1467,-0.079 1.2075,-0.10039 1.1404,-0.40082 -0.039,-0.17455 -0.2076,-1.2097 -0.37461,-2.3003 -0.16703,-1.0906 -0.43988,-2.6848 -0.6063,-3.5426 l -0.30262,-1.5597 -0.60752,0.13606 c -0.33413,0.0748 -0.78338,0.30415 -0.9983,0.50962 l -0.39082,0.37358 -0.17519,-0.32736 c -0.13971,-0.26102 -0.13491,-0.35286 0.0236,-0.4533 0.14648,-0.0928 0.11595,-0.12655 -0.11602,-0.12821 -0.17314,-0.001 -0.35025,0.0903 -0.39365,0.20331 -0.0434,0.11303 -0.30511,0.28022 -0.5816,0.37146 -0.5688,0.1877 -0.96987,0.81052 -0.6107,0.94832 0.40759,0.15642 0.20406,0.33995 -0.6707,0.6048 -0.48526,0.14691 -0.85075,0.29865 -0.81222,0.33717 0.0385,0.0385 -0.0602,0.25296 -0.21939,0.47652 -0.25792,0.36219 -0.28944,0.65323 -0.28944,2.6722 v 2.2657 l 2.3869,-0.0515 c 1.3128,-0.0283 2.932,-0.089 3.5982,-0.13496 z m 3.7828,-0.28053 c 1.142,-0.0988 4.0858,-0.50853 4.1558,-0.5785 0.0471,-0.0471 -0.50472,-2.0404 -0.97772,-3.5313 -0.37547,-1.1835 -1.3316,-3.6444 -1.4705,-3.7848 -0.0914,-0.0924 -5.2893,0.29471 -5.4193,0.40354 -0.0218,0.0182 0.0586,0.45669 0.17866,0.97432 0.18963,0.81767 1.1048,6.304 1.1082,6.6437 6.9e-4,0.0682 0.31521,0.0875 0.69895,0.0429 0.38374,-0.0446 1.1604,-0.12101 1.7259,-0.16989 z m 7.9093,-1.1857 c 1.0626,-0.20626 1.9847,-0.42611 2.0491,-0.48862 0.0644,-0.0625 -0.19082,-0.83433 -0.56702,-1.7152 -1.3396,-3.1366 -2.7741,-5.6864 -3.1348,-5.5719 -0.47755,0.15155 -2.8968,0.64205 -3.6472,0.73945 -0.69813,0.0906 -0.75532,0.12559 -0.61958,0.37921 0.3103,0.57977 1.5836,4.2334 1.9851,5.6959 l 0.4179,1.5223 0.79223,-0.0931 c 0.43573,-0.0512 1.6617,-0.26184 2.7243,-0.46808 z m -35.159,-0.0965 c -10e-4,-0.10098 -0.0591,-0.27328 -0.12851,-0.3829 -0.16139,-0.25467 -0.37394,0.0408 -0.25407,0.35322 0.10017,0.26105 0.38568,0.2832 0.38258,0.0297 z m 43.108,-1.1788 0.10418,-1.1422 -0.52972,0.25262 c -0.29136,0.13894 -0.51198,0.29124 -0.49027,0.33847 0.0217,0.0472 0.20001,0.4632 0.39623,0.92443 0.19623,0.46125 0.36996,0.82289 0.38608,0.8037 0.0161,-0.0192 0.0762,-0.54889 0.1335,-1.1771 z m -44.319,0.0981 c -0.0446,-0.55588 -0.16873,-1.0614 -0.29041,-1.1831 -0.18545,-0.18544 -0.25115,-0.11324 -0.51549,0.56663 -0.16664,0.42855 -0.34683,0.88789 -0.40045,1.0207 -0.071,0.17587 0.0151,0.28258 0.31624,0.39238 0.91189,0.33235 0.97612,0.27485 0.89011,-0.79663 z m -0.57891,-3.1122 c 0.14427,-1.6528 0.14768,-1.6635 0.88303,-2.777 l 0.73821,-1.1178 -1.2,-0.40311 c -0.66002,-0.22174 -1.2488,-0.37331 -1.3083,-0.33681 -0.39127,0.23957 -3.1704,4.5688 -4.0537,6.3148 l -0.30782,0.60838 0.6926,0.29563 c 0.54977,0.23464 2.7137,0.9326 3.4834,1.1235 0.31771,0.0788 0.92538,-2.0217 1.0726,-3.7076 z m 41.451,3.1159 c 0.68669,-0.22121 1.4655,-0.49255 1.7308,-0.60294 l 0.48223,-0.20075 -0.69068,-1.3373 c -0.58178,-1.1264 -2.7824,-4.5715 -3.4816,-5.4504 -0.1951,-0.24524 -0.28882,-0.23199 -1.7308,0.24482 -0.83845,0.27726 -1.6348,0.52614 -1.7698,0.55308 -0.20067,0.04 -0.0884,0.32705 0.6174,1.5784 0.75813,1.3441 1.8696,3.6732 2.5449,5.3331 0.20672,0.50802 0.25141,0.53719 0.63563,0.41534 0.22728,-0.0721 0.9751,-0.31206 1.6618,-0.5333 z m -45.972,-2.595 c 1.0562,-1.895 1.6557,-2.8422 2.726,-4.3065 l 0.75895,-1.0384 -0.67419,-0.35707 c -0.37079,-0.1964 -0.85342,-0.5077 -1.0725,-0.69182 l -0.39834,-0.33469 -0.85593,0.9957 c -1.5403,1.7918 -3.0918,3.9748 -3.8044,5.3529 -0.23961,0.46337 -0.2373,0.48374 0.0802,0.70394 0.63663,0.44162 2.1168,1.3284 2.2174,1.3284 0.0561,0 0.5164,-0.74364 1.023,-1.6525 z m 49.026,1.3872 c 0.32373,-0.2491 0.32784,-0.27891 0.11019,-0.79986 -0.12437,-0.29763 -0.22611,-0.78346 -0.22611,-1.0796 0,-1.198 -0.47184,-1.9703 -1.1278,-1.8459 -0.0952,0.018 -0.35447,-0.21685 -0.57615,-0.52203 -0.2217,-0.30515 -0.68915,-0.935 -1.0388,-1.3996 -0.3496,-0.46465 -0.63565,-0.93585 -0.63565,-1.0471 0,-0.11125 0.19828,-0.28442 0.44064,-0.38481 0.50819,-0.21051 0.52293,-0.25319 0.2078,-0.60142 -0.21995,-0.24304 -0.28255,-0.22519 -1.1292,0.32205 -0.49304,0.31866 -0.92499,0.60798 -0.95994,0.64291 -0.035,0.0349 0.1346,0.31446 0.3768,0.62116 0.79283,1.0039 2.6272,3.9104 3.249,5.1478 0.33494,0.66648 0.69086,1.2103 0.79095,1.2085 0.10008,-0.002 0.33328,-0.11971 0.51822,-0.26206 z m -52.43,-2.0213 c 0.4775,-1.048 2.3025,-3.6027 3.7397,-5.2349 l 0.86736,-0.98507 -0.30944,-0.39342 c -0.1702,-0.21639 -0.30948,-0.48366 -0.30948,-0.59394 0,-0.4309 -0.41264,-0.12529 -1.4976,1.1092 -1.3261,1.5088 -3.4611,4.4469 -3.5823,4.9298 -0.0999,0.39818 0.43915,1.5454 0.72618,1.5454 0.10658,0 0.27108,-0.16971 0.36559,-0.37714 z m 52.718,-1.7542 c 0.0202,-0.16075 -0.079,-0.43974 -0.22032,-0.61996 -0.25584,-0.32621 -0.25722,-0.32464 -0.29595,0.34169 -0.0332,0.57155 -0.001,0.66215 0.22032,0.61996 0.14261,-0.0272 0.27577,-0.18094 0.29595,-0.34169 z m -16.268,-0.66799 c 1.0099,-0.092 1.8878,-0.2158 1.9509,-0.27501 0.0632,-0.0592 -0.14314,-0.66868 -0.45842,-1.3543 -0.65054,-1.4148 -2.4776,-4.7812 -2.6541,-4.8903 -0.13973,-0.0864 -3.522,0.2933 -3.637,0.40824 -0.0441,0.0441 0.007,0.41926 0.1129,0.83367 0.18031,0.70348 0.24547,0.77912 0.982,1.1398 0.73435,0.35955 1.3274,1.039 1.1029,1.2635 -0.0507,0.0506 -0.0201,0.0921 0.0679,0.0921 0.088,0 0.23634,0.23133 0.32965,0.51409 0.12753,0.38652 0.25233,0.5141 0.50272,0.5141 0.39754,0 0.74392,0.36311 0.87577,0.91806 0.0809,0.34051 0.0487,0.40392 -0.20522,0.40392 -0.16566,0 -0.33997,-0.10109 -0.38738,-0.22465 -0.0745,-0.19402 -0.11244,-0.18904 -0.27867,0.0367 -0.18438,0.2504 -0.19676,0.25031 -0.29454,-0.002 -0.0852,-0.21986 -0.20823,-0.24741 -0.74492,-0.16694 -0.58378,0.0876 -0.64285,0.0684 -0.64285,-0.20861 0,-0.16776 0.13213,-0.64024 0.29363,-1.05 0.27774,-0.70465 0.27908,-0.73719 0.0247,-0.601 -0.67611,0.36183 -0.73141,0.80446 -0.30194,2.4176 l 0.1513,0.56835 0.68733,-0.085 c 0.37803,-0.0468 1.5136,-0.16032 2.5234,-0.25238 z m -3.8561,-0.322 c 0.0993,-0.28076 0.1244,-0.68911 0.0609,-0.99147 -0.10241,-0.48811 -0.14103,-0.51566 -0.76358,-0.54502 l -0.65575,-0.0309 0.486,0.18145 c 0.2673,0.0998 0.44749,0.21992 0.40048,0.26693 -0.13708,0.1371 -0.83074,-0.0415 -0.90415,-0.23281 -0.0922,-0.24019 -0.79418,-0.11615 -1.2356,0.21833 l -0.36247,0.27465 0.63514,-0.16039 c 0.5364,-0.13541 0.67256,-0.12289 0.87605,0.0806 0.13253,0.13253 0.16989,0.24096 0.083,0.24096 -0.0891,0 -0.12755,0.15933 -0.0881,0.36551 0.0384,0.20103 0.11754,0.33602 0.17581,0.30002 0.18849,-0.11649 0.96327,0.17036 0.92537,0.3426 -0.0835,0.37973 0.21092,0.13062 0.3669,-0.31043 z m 21.7,-0.17396 c -0.53647,-0.70336 -0.60889,-0.66464 -0.12486,0.0668 0.21493,0.32478 0.42084,0.56046 0.45755,0.52374 0.0367,-0.0367 -0.11296,-0.30246 -0.33269,-0.59054 z m -1.2459,-0.83439 c 0,-0.34315 0.11137,-0.34826 0.50254,-0.023 0.16792,0.13964 0.0905,0.0208 -0.17207,-0.26406 -0.26255,-0.28485 -0.48012,-0.5809 -0.48347,-0.65785 -0.011,-0.2502 -0.93371,-1.1874 -1.5488,-1.573 l -0.60018,-0.37624 0.0276,0.46401 c 0.036,0.60633 0.69872,2.0418 1.3563,2.9375 l 0.52214,0.71128 0.19798,-0.4709 c 0.10891,-0.259 0.19802,-0.5955 0.19802,-0.74782 z m -11.604,0.57851 c 0.84828,-0.16399 1.6158,-0.34091 1.7055,-0.39316 0.28218,-0.16425 -2.8035,-4.4958 -4.0301,-5.6571 l -0.4447,-0.42108 -1.5164,0.2607 c -0.834,0.14339 -1.5401,0.27948 -1.5691,0.30242 -0.029,0.023 0.38157,0.82494 0.91236,1.7822 0.53076,0.95727 1.2643,2.3854 1.6302,3.1735 l 0.6651,1.433 0.55239,-0.0912 c 0.30384,-0.0501 1.2464,-0.22533 2.0947,-0.38931 z m 3.8249,-1.0012 c 0.76427,-0.24173 1.4803,-0.49852 1.5913,-0.57064 0.15438,-0.10039 -0.1087,-0.47272 -1.1221,-1.588 -1.2495,-1.3752 -3.778,-3.7955 -4.2402,-4.0587 -0.129,-0.0735 -0.67297,0.0332 -1.3948,0.27365 l -1.1834,0.39408 0.50637,0.53424 c 0.83765,0.88369 2.6709,3.255 3.394,4.39 0.37311,0.58571 0.7641,1.0649 0.86881,1.0649 0.10475,0 0.81572,-0.1978 1.58,-0.43953 z m -35.093,-0.61861 c 0.32997,-0.56164 0.38231,-0.77302 0.27988,-1.1302 -0.10381,-0.36198 -0.0636,-0.5118 0.22846,-0.85141 0.19494,-0.22665 0.35451,-0.51972 0.35462,-0.65122 8e-5,-0.13152 0.10712,-0.49507 0.23782,-0.80787 0.13069,-0.31285 0.21359,-0.56877 0.18417,-0.56877 -0.0294,0 0.11036,-0.23134 0.31064,-0.51411 l 0.36409,-0.51409 -0.58499,0.46645 c -0.99118,0.79034 -4.4086,4.4252 -4.2807,4.5531 0.14371,0.14373 2.0938,0.77767 2.29,0.74449 0.11555,-0.0196 0.39273,-0.3464 0.616,-0.72638 z m 15.503,-0.74121 c -0.0881,-0.75897 -0.0813,-0.77654 0.43232,-1.1108 0.49969,-0.32523 0.51187,-0.3532 0.28752,-0.66098 -0.40039,-0.54925 -0.43415,-0.7242 -0.17621,-0.91278 0.22579,-0.16513 0.22689,-0.19002 0.0118,-0.27253 -0.13016,-0.05 -0.91421,-0.0908 -1.7423,-0.0908 h -1.5056 l -0.16931,0.55083 c -0.0931,0.30296 -0.12071,0.56957 -0.0613,0.59249 0.0594,0.0229 0.53757,0.22355 1.0627,0.44585 0.94233,0.39891 0.9549,0.41176 0.96518,0.98654 0.0164,0.91704 0.17575,1.2433 0.60725,1.2433 0.36888,0 0.37549,-0.0177 0.28803,-0.77114 z m -15.388,-2.901 c 0.85773,-0.84825 1.6366,-1.7164 1.7308,-1.9292 0.15321,-0.34604 0.12682,-0.42951 -0.24967,-0.79025 -0.23153,-0.22181 -0.50756,-0.36981 -0.61336,-0.32889 -0.18752,0.0726 -3.229,2.3309 -3.585,2.6618 -0.98539,0.91631 -2.5563,2.5198 -2.5563,2.6094 0,0.14141 1.1899,0.96766 1.6452,1.1424 0.29697,0.11401 0.44235,0.0117 1.2033,-0.84661 0.47605,-0.53697 1.5673,-1.6703 2.425,-2.5186 z m 38.049,2.9322 c 1.0438,-0.67467 1.0344,-0.83135 -0.0757,-1.2553 -0.43539,-0.16628 -0.64941,-0.33511 -0.64941,-0.51228 0,-0.14532 -0.0742,-0.45031 -0.16489,-0.67776 l -0.16491,-0.4135 -0.19,0.44068 -0.18998,0.44067 -0.14795,-0.38387 c -0.19984,-0.51852 -0.6788,-0.62982 -0.9669,-0.2247 -0.22298,0.31357 -0.22471,0.31364 -0.44313,0.021 -0.36811,-0.49315 -0.50004,-0.62884 -0.66486,-0.68378 -0.087,-0.029 -0.17334,-0.27457 -0.19183,-0.54571 -0.0268,-0.39345 -0.15967,-0.58365 -0.65787,-0.94191 -0.34333,-0.2469 -0.62426,-0.53686 -0.62426,-0.64433 0,-0.24546 0.17684,-0.25032 0.42964,-0.0118 0.15617,0.14734 0.18299,0.14507 0.13568,-0.0116 -0.0324,-0.10736 -0.22445,-0.29564 -0.42675,-0.41838 -0.34383,-0.20861 -0.41264,-0.19591 -1.056,0.19519 -0.37853,0.23012 -0.67396,0.45425 -0.65654,0.49804 0.0174,0.0438 0.71068,0.6941 1.5406,1.445 0.82988,0.75094 2.0858,2.017 2.7908,2.8135 0.70507,0.79646 1.3213,1.4516 1.3694,1.456 0.0481,0.004 0.50027,-0.25902 1.0049,-0.58518 z m -37.183,-0.45496 c -0.0462,-0.29401 -0.0669,-0.27333 -0.13456,0.13456 -0.0484,0.2919 -0.0268,0.42894 0.0546,0.34744 0.074,-0.074 0.10995,-0.29089 0.0799,-0.482 z m -1.8797,-4.4518 c 0.84826,-0.63577 1.4101,-1.105 1.2485,-1.0428 -0.87436,0.33671 -1.8722,0.52623 -2.0396,0.38734 -0.12907,-0.10713 -0.60669,0.18236 -1.7136,1.0385 -2.7246,2.1074 -2.9691,2.4508 -2.3264,3.2679 l 0.30995,0.39401 1.4894,-1.4445 c 0.81917,-0.79448 2.1834,-1.9647 3.0317,-2.6004 z m 42.45,3.8286 c 0,-0.0305 -0.1157,-0.14619 -0.25708,-0.25705 -0.23294,-0.18272 -0.23817,-0.17752 -0.0554,0.0555 0.19189,0.24466 0.31252,0.32248 0.31252,0.20159 z m -20.202,-1.2298 c -0.11645,-0.38374 -0.21244,-0.71424 -0.21332,-0.73442 -8.8e-4,-0.0202 -0.23492,-0.0367 -0.52008,-0.0367 h -0.51853 l 0.32472,0.4392 c 0.17858,0.24154 0.44159,0.47628 0.58444,0.52161 0.15219,0.0483 0.22594,0.17057 0.1781,0.29525 -0.0498,0.12975 0.008,0.2128 0.14735,0.2128 0.20501,0 0.20681,-0.0731 0.0173,-0.69771 z m -8.9022,-0.23867 c 0.16275,-0.59885 0.1033,-0.67936 -0.50178,-0.67936 -0.35133,0 -0.50541,0.0672 -0.50541,0.22034 0,0.12117 0.0732,0.22032 0.16279,0.22032 0.098,0 0.12798,0.13881 0.0752,0.34884 -0.0746,0.29731 -0.0335,0.34887 0.27841,0.34887 0.28532,0 0.39345,-0.10112 0.49074,-0.45901 z m 7.1292,-0.17728 c 0.13498,-0.35168 0.1302,-0.3552 -0.48125,-0.3552 -0.44687,0 -0.58705,0.0636 -0.6472,0.29378 -0.0669,0.2557 -0.005,0.29378 0.48121,0.29378 0.37342,0 0.5876,-0.0769 0.64724,-0.23236 z m -22.972,-2.0659 c 0.52513,-0.40837 1.6323,-1.1801 2.4604,-1.7148 0.84368,-0.54491 1.5056,-1.0724 1.5056,-1.2 0,-0.19143 -0.0992,-0.17705 -0.62342,0.0904 -1.228,0.62648 -3.6181,2.3589 -4.7926,3.4737 -1.3642,1.2949 -1.6228,1.8964 -0.34922,0.81225 0.46452,-0.39545 1.2742,-1.0531 1.7993,-1.4615 z m 19.5,1.1966 c -0.0617,-0.32249 -0.019,-0.36721 0.35008,-0.36721 0.35038,0 0.42029,-0.0611 0.42029,-0.3672 0,-0.29695 -0.0726,-0.36723 -0.37945,-0.36723 -0.46014,0 -0.40979,-0.34494 0.0605,-0.41413 0.35584,-0.0524 0.45867,-0.61408 0.11243,-0.61408 -0.12744,0 -0.17981,-0.10238 -0.13668,-0.2673 0.085,-0.32512 -0.30235,-0.67952 -0.6126,-0.56047 -0.12386,0.0475 -0.26445,0.28268 -0.31243,0.52257 -0.066,0.33011 -0.19024,0.45876 -0.51111,0.52923 -0.55536,0.12197 -0.53479,0.25757 0.0902,0.59415 0.28274,0.15226 0.51411,0.31689 0.51411,0.36585 0,0.20768 -0.20442,0.2644 -0.45998,0.12763 -0.18065,-0.0967 -0.36674,-0.0975 -0.54449,-0.002 -0.32703,0.17504 -0.94003,0.0413 -0.80587,-0.17584 0.0606,-0.0981 0.002,-0.11895 -0.16054,-0.0567 -0.14105,0.0541 -0.2832,0.0984 -0.31591,0.0984 -0.0742,0 -0.50406,1.0174 -0.50406,1.193 0,0.0709 0.73481,0.12894 1.6329,0.12894 h 1.6329 l -0.0702,-0.36723 z m -0.5516,-0.13822 c 0,-0.12592 0.0661,-0.22899 0.14689,-0.22899 0.0808,0 0.14687,0.0622 0.14687,0.13823 0,0.076 -0.0661,0.17906 -0.14687,0.22898 -0.0808,0.0499 -0.14689,-0.0123 -0.14689,-0.13822 z m 4.8422,-1.3673 c -0.387,-1.03 -0.82511,-2.153 -0.97357,-2.4956 l -0.26993,-0.62278 -1.0649,-10e-4 -1.0649,-10e-4 v 0.58693 0.58691 l 0.88718,0.24667 c 0.58754,0.16335 0.86312,0.30931 0.81597,0.43216 -0.0453,0.11798 0.19324,0.27333 0.65516,0.42674 0.39948,0.13271 0.72631,0.26589 0.72631,0.29599 0,0.0301 -0.0745,0.21825 -0.16556,0.41812 -0.14104,0.30947 -0.2187,0.34318 -0.52369,0.22723 -0.53475,-0.2033 -0.54593,-0.17652 -0.13169,0.3158 0.46939,0.5578 0.49031,0.7921 0.0498,0.5574 -0.30128,-0.16055 -0.3124,-0.1542 -0.12595,0.0718 0.11249,0.13635 0.17327,0.27918 0.13507,0.31738 -0.12971,0.12971 -1.4102,-0.38636 -1.6695,-0.67285 -0.32103,-0.35474 -0.65511,-0.36918 -0.64685,-0.028 0.006,0.26625 0.8895,0.91802 1.2438,0.91802 0.11083,0 0.24235,0.0661 0.29226,0.14689 0.0499,0.0808 0.64066,0.14689 1.3127,0.14689 h 1.222 l -0.70366,-1.8728 z m 3.8038,1.4513 c 0.0293,-0.0106 -0.30124,-0.25882 -0.73445,-0.55169 -0.43319,-0.29287 -1.0394,-0.77209 -1.3471,-1.0649 -0.47734,-0.45426 -0.54715,-0.59886 -0.47547,-0.98467 0.0806,-0.43331 0.0656,-0.4495 -0.35855,-0.38726 -0.37309,0.0547 -0.44259,0.0162 -0.44259,-0.24548 0,-0.17074 -0.0862,-0.31045 -0.19152,-0.31045 -0.10532,0 -0.41478,-0.23035 -0.68767,-0.5119 -0.27288,-0.28153 -0.52181,-0.48623 -0.55316,-0.45489 -0.0314,0.0314 0.0707,0.31129 0.22676,0.62205 0.15604,0.31079 0.5934,1.3932 0.97194,2.4053 l 0.68821,1.8402 1.4252,-0.16859 c 0.78386,-0.0927 1.4491,-0.17716 1.4784,-0.18772 z m 11.178,-0.0276 c -0.17589,-0.24703 -0.3569,-0.412 -0.40225,-0.36665 -0.075,0.075 0.52821,0.81576 0.66421,0.81576 0.0318,0 -0.0861,-0.20212 -0.26196,-0.44911 z m -22.56,-0.0283 c 0.142,-0.52981 0.12192,-0.54135 -0.49187,-0.28286 -0.80858,0.34051 -0.88085,0.61336 -0.16247,0.61336 0.46258,0 0.58195,-0.0603 0.65434,-0.3305 z m 23.914,-0.009 c -0.17564,-0.18696 -0.31936,-0.40429 -0.31936,-0.48289 0,-0.0786 -0.31397,-0.43905 -0.69773,-0.80093 -1.3865,-1.3075 -1.674,-1.541 -1.5727,-1.277 0.12622,0.32892 -0.19016,0.33949 -0.64414,0.0215 -0.4627,-0.32412 -0.62627,-0.0893 -0.17007,0.24409 0.20196,0.14762 0.92906,0.68334 1.6158,1.1905 0.68669,0.50715 1.2902,0.91009 1.3412,0.89543 0.051,-0.0147 0.20995,0.10289 0.35326,0.26124 0.14335,0.15839 0.29492,0.28796 0.33688,0.28796 0.0419,0 -0.0674,-0.15298 -0.24309,-0.33997 z m -9.3696,-0.43404 1.0115,-0.18074 -1.3513,-1.2882 c -1.318,-1.2565 -1.74,-1.4607 -1.5633,-0.75665 0.0663,0.26428 -10e-4,0.40455 -0.28448,0.59012 -0.33837,0.22171 -0.34948,0.25954 -0.12472,0.42389 0.14404,0.10533 0.20898,0.27914 0.15594,0.41736 -0.05,0.13027 -0.0236,0.27842 0.0586,0.32927 0.0822,0.0508 0.21049,0.25276 0.28502,0.44875 0.10423,0.27424 0.21217,0.33798 0.46831,0.27664 0.18305,-0.0438 0.78803,-0.16101 1.3444,-0.26043 z m 2.4424,-0.63986 1.1669,-0.38567 -0.54779,-0.43611 c -0.85667,-0.68197 -1.0638,-0.76314 -1.3124,-0.51449 -0.16189,0.16188 -0.35081,0.1859 -0.75143,0.0956 -0.29432,-0.0664 -0.55837,-0.19031 -0.58671,-0.27535 -0.0283,-0.0851 -0.16174,-0.15674 -0.29635,-0.15931 -0.18277,-0.003 -0.13639,-0.0999 0.18286,-0.38059 0.34544,-0.30366 0.38782,-0.40235 0.22032,-0.51323 -0.46205,-0.30588 -2.5958,-1.452 -3.0794,-1.6541 -0.50689,-0.21179 -0.51813,-0.20895 -0.54678,0.13714 -0.0215,0.25933 0.0875,0.41376 0.40953,0.58028 0.24133,0.12479 0.43878,0.27984 0.43878,0.34457 0,0.0647 0.20709,0.0873 0.46018,0.0501 0.44725,-0.0656 0.4582,-0.0539 0.38898,0.41786 -0.0663,0.45203 0.0207,0.57418 1.2657,1.7767 0.73533,0.71024 1.3558,1.2938 1.3788,1.2968 0.023,0.003 0.56695,-0.16814 1.2088,-0.38025 z m 5.2858,0.33712 c 0,-0.0267 -0.31397,-0.2645 -0.69771,-0.52845 l -0.6977,-0.47993 0.54865,0.52847 c 0.46503,0.44791 0.84676,0.66426 0.84676,0.47991 z m -2.4971,-1.7143 c 0,-0.25011 -4.6603,-2.6136 -6.4707,-3.2818 -0.83343,-0.30755 -0.9994,-0.32817 -1.2378,-0.15384 -0.33269,0.24328 -0.37068,0.2057 0.80368,0.79453 0.52445,0.26297 1.4287,0.76655 2.0094,1.1191 0.58071,0.35251 1.1007,0.64092 1.1556,0.64092 0.0549,0 0.24125,0.12989 0.41423,0.28868 0.17295,0.15872 0.67321,0.55308 1.1117,0.87628 l 0.7972,0.58763 0.70837,-0.38553 c 0.38959,-0.21205 0.70834,-0.43072 0.70834,-0.48597 z m 3.346,0.71077 c -0.0313,-0.0939 -0.18556,-0.18888 -0.34273,-0.21102 -0.28282,-0.0398 -0.28282,-0.038 -7e-4,0.17076 0.34546,0.25568 0.41807,0.2642 0.34343,0.0403 z m -18.638,-0.5097 c -0.23461,-0.28267 -0.2776,-0.25413 -0.2776,0.18437 0,0.32714 0.0335,0.35741 0.22215,0.20085 0.16896,-0.14024 0.18223,-0.23245 0.0555,-0.38522 z m -17.392,-0.52367 c 0.39001,-0.25836 0.64133,-0.49233 0.55846,-0.51997 -0.13632,-0.0454 -1.6579,0.81563 -1.6579,0.93821 0,0.17271 0.48693,-0.0125 1.0994,-0.41824 z m 14.911,-0.0466 c 0,-0.22593 -0.44712,-0.42043 -0.59676,-0.25959 -0.0588,0.0632 -0.0471,0.27123 0.026,0.46224 0.11006,0.28734 0.17079,0.31591 0.35188,0.16562 0.12036,-0.0999 0.21885,-0.26561 0.21885,-0.36827 z m -4.1782,-0.2312 c 0.062,-0.10035 -0.0286,-0.14047 -0.24735,-0.10939 -0.19311,0.0274 -0.36792,0.16775 -0.39665,0.31833 -0.0436,0.22874 -0.006,0.2452 0.24739,0.10938 0.1643,-0.0879 0.34276,-0.23117 0.39661,-0.31832 z m 1.3873,0.1528 c 0,-0.0659 0.14872,-0.16627 0.33049,-0.22298 0.18177,-0.0567 0.46268,-0.20152 0.62427,-0.32174 0.24389,-0.1815 0.24916,-0.20352 0.0311,-0.12956 -0.37394,0.12678 -0.59712,-0.49387 -0.26778,-0.74465 0.34387,-0.26188 0.80221,-0.24167 0.69768,0.0307 -0.10981,0.28615 0.11126,0.28391 0.34983,-0.004 0.22968,-0.27672 0.20055,-0.30202 -0.46565,-0.40468 -0.66788,-0.10292 -1.153,0.33331 -1.153,1.0368 0,0.50225 -0.38994,0.83348 -0.79721,0.67718 -0.21741,-0.0834 -0.32218,0.0964 -0.15409,0.26449 0.11376,0.11379 0.80442,-0.0425 0.80442,-0.18204 z m 20.858,0.0439 c -1.5e-4,-0.0606 -0.29758,-0.298 -0.66098,-0.52758 -0.36339,-0.22957 -0.66071,-0.47662 -0.66071,-0.54898 0,-0.15102 -0.93262,-0.76103 -1.9055,-1.2464 -0.9549,-0.47642 -3.833,-1.4135 -4.0663,-1.324 -0.38421,0.14743 -0.18604,0.31198 0.79406,0.65926 1.0417,0.36911 4.542,2.0848 5.545,2.7178 0.5895,0.3721 0.95499,0.47546 0.95448,0.26986 z m -18.704,-0.80785 c 0.22048,-0.43671 0.11078,-0.51511 -0.30022,-0.21459 -0.1978,0.14463 -0.23324,0.29183 -0.15008,0.62313 0.0673,0.26806 0.13511,0.35003 0.17759,0.21457 0.0378,-0.12055 0.16051,-0.40096 0.27271,-0.62311 z m -4.3793,-0.0401 c 0.22875,-0.20383 0.54214,-0.47273 0.69644,-0.59757 0.26469,-0.21413 0.25562,-0.2216 -0.16015,-0.13207 -0.24235,0.0522 -0.65787,0.22882 -0.92332,0.39251 -0.38611,0.23801 -0.44866,0.33861 -0.31252,0.50264 0.22069,0.26591 0.21342,0.26764 0.69955,-0.16551 z m 7.0727,0.0935 c 0,-0.0716 -0.19831,-0.15931 -0.44065,-0.1949 -0.46894,-0.0688 -0.61625,0.11082 -0.18361,0.22388 0.43942,0.11482 0.62426,0.10624 0.62426,-0.029 z m -0.42029,-0.49458 c 0.37714,0.14233 0.42029,0.12779 0.42029,-0.14161 0,-0.26519 -0.0643,-0.28962 -0.55082,-0.20919 -0.30295,0.0501 -0.79868,0.0918 -1.1017,0.0927 -0.30294,8.9e-4 -0.55082,0.0585 -0.55082,0.12814 0,0.0696 0.18177,0.0944 0.40395,0.055 0.33116,-0.0586 0.37084,-0.0364 0.22032,0.12318 -0.35149,0.37269 -0.1805,0.44752 0.27742,0.12142 0.38999,-0.27768 0.52586,-0.30385 0.88132,-0.16964 z m -13.093,-1.0506 c 0,-0.0328 -0.14873,-0.0272 -0.33051,0.0127 -0.27308,0.0598 -0.29223,0.043 -0.11015,-0.0968 0.17733,-0.13622 0.14865,-0.14932 -0.14689,-0.0672 -1.017,0.28273 -2.0564,1.0115 -2.0564,1.4419 0,0.0413 0.5949,-0.21867 1.322,-0.57784 0.72708,-0.35917 1.322,-0.67993 1.322,-0.71279 z m 5.6554,1.1408 c 0.17763,-0.0682 0.19589,-0.12402 0.0666,-0.2039 -0.0979,-0.0605 -0.13197,-0.18452 -0.0757,-0.27555 0.13112,-0.21219 1.0522,-0.59864 1.4589,-0.61209 0.20893,-0.007 0.11954,-0.081 -0.26976,-0.22355 -0.56998,-0.20867 -0.60802,-0.20086 -1.7994,0.37079 -0.66938,0.32121 -1.217,0.6259 -1.217,0.67711 0,0.0512 0.25306,0.0504 0.56236,-0.002 0.41739,-0.0705 0.61137,-0.036 0.75243,0.13396 0.21848,0.26329 0.20004,0.25851 0.5216,0.13511 z m 3.2109,-0.51163 c 0.29375,-0.27369 0.2921,-0.2758 -0.21638,-0.2758 -0.28183,0 -0.58597,-0.0735 -0.67584,-0.1634 -0.31877,-0.31878 -0.46571,-0.0693 -0.25394,0.43117 0.17158,0.4055 0.261,0.47082 0.5283,0.38597 0.17699,-0.0562 0.45502,-0.22626 0.61786,-0.37794 z m -4.1292,-0.49447 c 0.6261,-0.3191 1.1383,-0.63053 1.1383,-0.69206 0,-0.54817 -2.4225,0.11258 -2.5331,0.69091 -0.0671,0.35119 0.0214,0.69682 0.1609,0.62824 0.0525,-0.0258 0.60774,-0.308 1.2338,-0.62709 z m 6.3069,0.55899 c -0.10603,-0.0424 -0.23273,-0.0372 -0.28153,0.0116 -0.0488,0.0488 0.0379,0.0835 0.19278,0.0772 0.17112,-0.007 0.20591,-0.0419 0.0888,-0.0888 z m 3.2409,-0.50399 c -0.47629,-0.30503 -0.51632,-0.57075 -0.086,-0.57075 0.13501,0 0.19518,-0.0839 0.1481,-0.20653 -0.118,-0.30758 0.37392,-0.67479 0.90402,-0.67479 0.31611,0 0.46579,-0.0708 0.46579,-0.22033 0,-0.26942 1.1704,-0.31322 1.43,-0.0535 0.12452,0.12449 0.22778,0.10586 0.4071,-0.0734 0.13215,-0.13215 0.26733,-0.24026 0.30043,-0.24026 0.24799,0 1.9753,0.98199 1.9753,1.123 0,0.4995 1.3732,0.13899 1.9656,-0.51603 0.25987,-0.28734 0.26187,-0.32782 0.0333,-0.67661 -0.29872,-0.45587 -0.28131,-0.45597 1.3965,-0.007 0.74815,0.20022 1.3872,0.3371 1.4201,0.30417 0.10851,-0.10852 -2.086,-0.719 -2.6857,-0.74713 -0.32316,-0.0151 -0.78586,-0.10447 -1.0282,-0.19856 -0.24236,-0.0941 -0.60589,-0.23352 -0.80785,-0.30989 -1.5909,-0.60159 -5.6142,-0.94222 -8.6048,-0.7285 -2.5853,0.18475 -4.0242,0.47905 -5.2025,1.064 -0.78132,0.3879 -0.96307,0.54577 -1.0004,0.86901 -0.0373,0.3223 0.0642,0.46773 0.55135,0.79013 0.68704,0.4547 2.4572,0.99293 2.5851,0.78604 0.0466,-0.0753 -0.10107,-0.13792 -0.32799,-0.13915 -0.32037,-0.002 -0.36336,-0.0341 -0.19228,-0.14462 0.12118,-0.0783 0.40003,-0.1434 0.61965,-0.14464 0.30774,-0.002 0.37847,0.0522 0.3083,0.23504 -0.0717,0.18681 -0.0262,0.21667 0.21402,0.14042 0.20964,-0.0665 0.35003,-0.0165 0.44876,0.15995 0.12257,0.21899 0.20057,0.23086 0.52999,0.0808 0.31979,-0.1457 0.40073,-0.13825 0.47046,0.0434 0.0463,0.12069 0.22196,0.21945 0.39032,0.21945 0.30073,0 0.30109,-0.004 0.021,-0.21566 -0.28092,-0.21247 -0.28073,-0.21572 0.0127,-0.22034 0.16379,-0.003 0.44899,0.10125 0.63378,0.23063 0.18476,0.12945 0.37573,0.19555 0.42437,0.14691 0.0486,-0.0486 -0.005,-0.0899 -0.11967,-0.0917 -0.12918,-0.002 -0.0743,-0.1061 0.14456,-0.27439 0.35227,-0.27085 0.35164,-0.27107 -0.62124,-0.22618 -0.57081,0.0263 -1.0133,-0.0189 -1.0692,-0.10928 -0.12874,-0.20829 0.26895,-0.44102 0.44789,-0.26209 0.21112,0.21112 0.66776,0.16945 0.75938,-0.0693 0.12597,-0.32826 0.88701,-0.52454 2.0252,-0.52235 l 1.043,0.002 -0.95478,0.87729 -0.95476,0.8773 1.0282,-4.8e-4 1.0282,-4.6e-4 -0.47718,-0.30561 z m 5.8596,-2.0708 c -0.57762,-0.10507 -0.74339,-0.18659 -0.6234,-0.30656 0.17636,-0.17637 1.4268,0.0789 1.6966,0.34629 0.1652,0.16373 0.0144,0.15814 -1.0732,-0.0397 z m -17.28,0.89181 c 0.88867,-0.3095 1.7244,-0.56364 1.8571,-0.56481 0.13274,-10e-4 0.27852,-0.099 0.32397,-0.21742 0.0657,-0.17114 -0.014,-0.19812 -0.38823,-0.13145 -1.1313,0.20164 -2.4402,0.68125 -3.1882,1.1682 -0.44435,0.28927 -0.6757,0.47695 -0.51412,0.41707 0.16158,-0.0599 1.0208,-0.36209 1.9095,-0.67159 z m 2.2768,-0.24489 c 0,-0.2233 -0.13997,-0.20501 -1.6032,0.20944 -0.76765,0.21744 -0.783,0.23164 -0.44066,0.40901 0.29799,0.15439 0.48963,0.13618 1.1993,-0.11385 0.48777,-0.1719 0.8446,-0.38506 0.8446,-0.5046 z m 19.129,0.005 c -0.14323,-0.14321 -0.67101,-0.37456 -1.1729,-0.51407 -1.0958,-0.30466 -1.0736,-0.3034 -0.97837,-0.0551 0.0419,0.10924 0.45298,0.28181 0.91346,0.38351 0.46045,0.10171 0.93636,0.24168 1.0575,0.31104 0.36831,0.2108 0.45565,0.15003 0.18024,-0.12539 z m -19.643,-0.85221 c 0.70186,-0.11959 1.1863,-0.34468 0.75705,-0.35174 -0.33362,-0.006 -1.8587,0.42933 -1.8587,0.52995 0,0.0401 0.11568,0.0389 0.25706,-0.003 0.14139,-0.0415 0.52145,-0.12054 0.84457,-0.1756 z"
         inkscape:export-ydpi="150"
         inkscape:export-filename="H:\ПРОФ-о\тест1.png"
         inkscape:export-xdpi="150"
         inkscape:connector-curvature="0" />
    </g>
    <ellipse
       style="fill:#000080;fill-opacity:0;fill-rule:nonzero;stroke:#008080;stroke-width:3.77952766;stroke-miterlimit:4;stroke-dasharray:none;stroke-opacity:1"
       id="path4545"
       cx="-494.52307"
       cy="-608.39331"
       rx="326.74152"
       ry="327.02942"
       inkscape:label="path4545"
       transform="rotate(-167.06088)" />
    <flowRoot
       xml:space="preserve"
       id="flowRoot4569"
       style="font-style:normal;font-weight:normal;font-size:40px;line-height:125%;font-family:Sans;letter-spacing:0px;word-spacing:0px;fill:#000000;fill-opacity:1;stroke:none;stroke-width:1px;stroke-linecap:butt;stroke-linejoin:miter;stroke-opacity:1"
       transform="translate(0,352.36)"><flowRegion
         id="flowRegion4571"><rect
           id="rect4573"
           width="202.19109"
           height="128.31532"
           x="-137.70142"
           y="227.02557" /></flowRegion><flowPara
         id="flowPara4575" /></flowRoot>    <text
       xml:space="preserve"
       style="font-style:normal;font-weight:normal;font-size:72.58602142px;line-height:125%;font-family:Sans;letter-spacing:0px;word-spacing:0px;fill:#000000;fill-opacity:1;stroke:none;stroke-width:6.85851955;stroke-linecap:butt;stroke-linejoin:miter;stroke-miterlimit:4;stroke-dasharray:none;stroke-opacity:1"
       x="-97.573074"
       y="775.48883"
       id="text4579"><tspan
         sodipodi:role="line"
         id="tspan4577"
         x="-97.573074"
         y="775.48883"
         style="font-style:normal;font-variant:normal;font-weight:bold;font-stretch:normal;font-size:154.85018921px;font-family:sans-serif;-inkscape-font-specification:'sans-serif Bold';stroke:#ffffff;stroke-width:6.85851955;stroke-miterlimit:4;stroke-dasharray:none;stroke-opacity:1">FOSSIG</tspan></text>
    <text
       xml:space="preserve"
       style="font-style:normal;font-variant:normal;font-weight:normal;font-stretch:normal;font-size:40px;line-height:125%;font-family:sans-serif;-inkscape-font-specification:'sans-serif, Normal';font-variant-ligatures:normal;font-variant-caps:normal;font-variant-numeric:normal;font-feature-settings:normal;text-align:start;letter-spacing:0px;word-spacing:0px;writing-mode:lr-tb;text-anchor:start;fill:#000000;fill-opacity:1;stroke:none;stroke-width:1px;stroke-linecap:butt;stroke-linejoin:miter;stroke-opacity:1"
       id="text4591"
       transform="rotate(9.1213816,365.11525,715.34014)"
       x="100.18434"
       y="-61.529488"><textPath
         xlink:href="#path4545-0"
         id="textPath4627"><tspan
   rotate="0 0 0 0 0 0 0 0 0 0 0 0 0 0 0 0 0 0 0 0 0 0 0 0 0 0 0 0 0 0 0 0 0 0 0 0 0 0 0 0 0 0 0 0 0 0 0 0 0 0"
   id="tspan4589"
   style="font-style:normal;font-variant:normal;font-weight:normal;font-stretch:normal;font-size:40px;font-family:sans-serif;-inkscape-font-specification:'sans-serif, Normal';font-variant-ligatures:normal;font-variant-caps:normal;font-variant-numeric:normal;font-feature-settings:normal;text-align:start;writing-mode:lr-tb;text-anchor:start"><tspan
   style="font-style:normal;font-variant:normal;font-weight:bold;font-stretch:normal;font-family:sans-serif;-inkscape-font-specification:'sans-serif Bold'"
   id="tspan4635">S1000D</tspan> - Free Open Source Software Interest Group</tspan></textPath></text>
    <ellipse
       style="fill:#000080;fill-opacity:0;fill-rule:nonzero;stroke:none;stroke-width:3.93674755;stroke-miterlimit:4;stroke-dasharray:none;stroke-opacity:1"
       id="path4545-0"
       cx="-386.26395"
       cy="-682.43256"
       rx="340.33322"
       ry="340.63312"
       inkscape:label="path4545"
       transform="rotate(-176.62442)" />
  </g>
  <metadata
     id="metadata4540">
    <rdf:RDF>
      <cc:Work>
        <dc:format>image/svg+xml</dc:format>
        <dc:type
           rdf:resource="http://purl.org/dc/dcmitype/StillImage" />
        <cc:license
           rdf:resource="http://creativecommons.org/publicdomain/zero/1.0/" />
        <dc:publisher>
          <cc:Agent
             rdf:about="http://openclipart.org/">
            <dc:title>Openclipart</dc:title>
          </cc:Agent>
        </dc:publisher>
        <dc:title></dc:title>
        <dc:date>2010-12-02T18:17:34</dc:date>
        <dc:description>???????? ????? ???????????? ??????</dc:description>
        <dc:source>https://openclipart.org/detail/99151/world-by-solo</dc:source>
        <dc:creator>
          <cc:Agent>
            <dc:title>solo</dc:title>
          </cc:Agent>
        </dc:creator>
        <dc:subject>
          <rdf:Bag>
            <rdf:li>World</rdf:li>
            <rdf:li>??????</rdf:li>
            <rdf:li>?????</rdf:li>
            <rdf:li>?????</rdf:li>
            <rdf:li>???</rdf:li>
            <rdf:li>?????????</rdf:li>
          </rdf:Bag>
        </dc:subject>
      </cc:Work>
      <cc:License
         rdf:about="http://creativecommons.org/publicdomain/zero/1.0/">
        <cc:permits
           rdf:resource="http://creativecommons.org/ns#Reproduction" />
        <cc:permits
           rdf:resource="http://creativecommons.org/ns#Distribution" />
        <cc:permits
           rdf:resource="http://creativecommons.org/ns#DerivativeWorks" />
      </cc:License>
    </rdf:RDF>
  </metadata>
</svg>
